<?xml version="1.0" encoding="UTF-8"?>
<svg xmlns="http://www.w3.org/2000/svg" xmlns:xlink="http://www.w3.org/1999/xlink" width="375pt" height="374.999991pt" viewBox="0 0 375 374.999991" version="1.2">
<defs>
<clipPath id="clip1">
  <path d="M 67 47.496094 L 301 47.496094 L 301 331 L 67 331 Z M 67 47.496094 "/>
</clipPath>
</defs>
<g id="surface1">
<path style=" stroke:none;fill-rule:nonzero;fill:rgb(0%,40.388489%,56.079102%);fill-opacity:1;" d="M 185.546875 14 C 182.671875 14 179.804688 14.070312 176.9375 14.210938 C 174.066406 14.351562 171.203125 14.5625 168.347656 14.84375 C 165.488281 15.125 162.640625 15.476562 159.800781 15.898438 C 156.960938 16.320312 154.132812 16.808594 151.316406 17.371094 C 148.5 17.929688 145.699219 18.558594 142.914062 19.257812 C 140.128906 19.953125 137.359375 20.71875 134.613281 21.554688 C 131.863281 22.386719 129.140625 23.289062 126.4375 24.253906 C 123.730469 25.222656 121.054688 26.253906 118.402344 27.355469 C 115.746094 28.453125 113.125 29.617188 110.527344 30.84375 C 107.933594 32.070312 105.367188 33.363281 102.835938 34.714844 C 100.304688 36.070312 97.804688 37.484375 95.34375 38.960938 C 92.878906 40.4375 90.453125 41.972656 88.066406 43.570312 C 85.679688 45.164062 83.332031 46.816406 81.027344 48.527344 C 78.71875 50.238281 76.457031 52.003906 74.238281 53.824219 C 72.015625 55.648438 69.84375 57.523438 67.714844 59.449219 C 65.589844 61.378906 63.507812 63.359375 61.480469 65.386719 C 59.449219 67.417969 57.46875 69.5 55.539062 71.625 C 53.613281 73.753906 51.738281 75.925781 49.914062 78.148438 C 48.09375 80.367188 46.328125 82.628906 44.617188 84.9375 C 42.90625 87.242188 41.253906 89.589844 39.660156 91.976562 C 38.0625 94.363281 36.527344 96.789062 35.050781 99.253906 C 33.574219 101.714844 32.160156 104.214844 30.804688 106.746094 C 29.453125 109.277344 28.164062 111.84375 26.933594 114.4375 C 25.707031 117.035156 24.542969 119.65625 23.445312 122.3125 C 22.347656 124.964844 21.3125 127.640625 20.34375 130.34375 C 19.378906 133.050781 18.476562 135.773438 17.644531 138.523438 C 16.808594 141.269531 16.042969 144.035156 15.347656 146.824219 C 14.648438 149.609375 14.019531 152.410156 13.460938 155.226562 C 12.898438 158.042969 12.410156 160.871094 11.988281 163.710938 C 11.566406 166.550781 11.214844 169.398438 10.933594 172.257812 C 10.652344 175.113281 10.441406 177.976562 10.300781 180.84375 C 10.160156 183.714844 10.089844 186.582031 10.089844 189.453125 C 10.089844 192.328125 10.160156 195.195312 10.300781 198.0625 C 10.441406 200.933594 10.652344 203.796875 10.933594 206.652344 C 11.214844 209.511719 11.566406 212.359375 11.988281 215.199219 C 12.410156 218.039062 12.898438 220.867188 13.460938 223.683594 C 14.019531 226.5 14.648438 229.300781 15.347656 232.085938 C 16.042969 234.871094 16.808594 237.640625 17.644531 240.386719 C 18.476562 243.136719 19.378906 245.859375 20.34375 248.5625 C 21.3125 251.269531 22.347656 253.945312 23.445312 256.597656 C 24.542969 259.25 25.707031 261.875 26.933594 264.472656 C 28.164062 267.066406 29.453125 269.632812 30.804688 272.164062 C 32.160156 274.695312 33.574219 277.195312 35.050781 279.65625 C 36.527344 282.121094 38.0625 284.546875 39.660156 286.933594 C 41.253906 289.320312 42.90625 291.667969 44.617188 293.972656 C 46.328125 296.28125 48.09375 298.542969 49.914062 300.761719 C 51.738281 302.984375 53.613281 305.15625 55.539062 307.285156 C 57.46875 309.410156 59.449219 311.492188 61.480469 313.519531 C 63.507812 315.550781 65.589844 317.53125 67.714844 319.460938 C 69.84375 321.386719 72.015625 323.261719 74.238281 325.085938 C 76.457031 326.90625 78.71875 328.671875 81.027344 330.382812 C 83.332031 332.09375 85.679688 333.746094 88.066406 335.339844 C 90.453125 336.9375 92.878906 338.472656 95.34375 339.949219 C 97.804688 341.425781 100.304688 342.839844 102.835938 344.191406 C 105.367188 345.546875 107.933594 346.835938 110.527344 348.066406 C 113.125 349.292969 115.746094 350.457031 118.402344 351.554688 C 121.054688 352.652344 123.730469 353.6875 126.4375 354.65625 C 129.140625 355.621094 131.863281 356.523438 134.613281 357.355469 C 137.359375 358.1875 140.128906 358.953125 142.914062 359.652344 C 145.699219 360.351562 148.5 360.980469 151.316406 361.539062 C 154.132812 362.101562 156.960938 362.589844 159.800781 363.011719 C 162.640625 363.433594 165.488281 363.785156 168.347656 364.066406 C 171.203125 364.347656 174.066406 364.558594 176.9375 364.699219 C 179.804688 364.839844 182.671875 364.910156 185.546875 364.910156 C 188.417969 364.910156 191.285156 364.839844 194.15625 364.699219 C 197.023438 364.558594 199.886719 364.347656 202.742188 364.066406 C 205.601562 363.785156 208.449219 363.433594 211.289062 363.011719 C 214.128906 362.589844 216.957031 362.101562 219.773438 361.539062 C 222.589844 360.980469 225.390625 360.351562 228.175781 359.652344 C 230.960938 358.953125 233.730469 358.1875 236.476562 357.355469 C 239.226562 356.523438 241.949219 355.621094 244.65625 354.65625 C 247.359375 353.6875 250.035156 352.652344 252.6875 351.554688 C 255.34375 350.457031 257.964844 349.292969 260.5625 348.066406 C 263.15625 346.835938 265.722656 345.546875 268.253906 344.191406 C 270.785156 342.839844 273.285156 341.425781 275.746094 339.949219 C 278.210938 338.472656 280.636719 336.9375 283.023438 335.339844 C 285.410156 333.746094 287.757812 332.09375 290.0625 330.382812 C 292.371094 328.671875 294.632812 326.90625 296.851562 325.085938 C 299.074219 323.261719 301.246094 321.386719 303.375 319.460938 C 305.5 317.53125 307.582031 315.550781 309.609375 313.519531 C 311.640625 311.492188 313.621094 309.410156 315.550781 307.285156 C 317.476562 305.15625 319.351562 302.984375 321.175781 300.761719 C 322.996094 298.542969 324.761719 296.28125 326.472656 293.972656 C 328.183594 291.667969 329.835938 289.320312 331.429688 286.933594 C 333.027344 284.546875 334.5625 282.121094 336.039062 279.65625 C 337.515625 277.195312 338.929688 274.695312 340.285156 272.164062 C 341.636719 269.632812 342.929688 267.066406 344.15625 264.472656 C 345.382812 261.875 346.546875 259.25 347.644531 256.597656 C 348.746094 253.945312 349.777344 251.269531 350.746094 248.5625 C 351.710938 245.859375 352.613281 243.136719 353.445312 240.386719 C 354.28125 237.640625 355.046875 234.871094 355.742188 232.085938 C 356.441406 229.300781 357.070312 226.5 357.628906 223.683594 C 358.191406 220.867188 358.679688 218.039062 359.101562 215.199219 C 359.523438 212.359375 359.875 209.511719 360.15625 206.652344 C 360.4375 203.796875 360.648438 200.933594 360.789062 198.0625 C 360.929688 195.195312 361 192.328125 361 189.453125 C 361 186.582031 360.929688 183.714844 360.789062 180.84375 C 360.648438 177.976562 360.4375 175.113281 360.15625 172.257812 C 359.875 169.398438 359.523438 166.550781 359.101562 163.710938 C 358.679688 160.871094 358.191406 158.042969 357.628906 155.226562 C 357.070312 152.410156 356.441406 149.609375 355.742188 146.824219 C 355.046875 144.035156 354.28125 141.269531 353.445312 138.523438 C 352.613281 135.773438 351.710938 133.050781 350.746094 130.34375 C 349.777344 127.640625 348.746094 124.964844 347.644531 122.3125 C 346.546875 119.65625 345.382812 117.035156 344.15625 114.4375 C 342.929688 111.84375 341.636719 109.277344 340.285156 106.746094 C 338.929688 104.214844 337.515625 101.714844 336.039062 99.253906 C 334.5625 96.789062 333.027344 94.363281 331.429688 91.976562 C 329.835938 89.589844 328.183594 87.242188 326.472656 84.9375 C 324.761719 82.628906 322.996094 80.367188 321.175781 78.148438 C 319.351562 75.925781 317.476562 73.753906 315.550781 71.625 C 313.621094 69.5 311.640625 67.417969 309.609375 65.386719 C 307.582031 63.359375 305.5 61.378906 303.375 59.449219 C 301.246094 57.523438 299.074219 55.648438 296.851562 53.824219 C 294.632812 52.003906 292.371094 50.238281 290.0625 48.527344 C 287.757812 46.816406 285.410156 45.164062 283.023438 43.570312 C 280.636719 41.972656 278.210938 40.4375 275.746094 38.960938 C 273.285156 37.484375 270.785156 36.070312 268.253906 34.714844 C 265.722656 33.363281 263.15625 32.070312 260.5625 30.84375 C 257.964844 29.617188 255.34375 28.453125 252.6875 27.355469 C 250.035156 26.253906 247.359375 25.222656 244.65625 24.253906 C 241.949219 23.289062 239.226562 22.386719 236.476562 21.554688 C 233.730469 20.71875 230.960938 19.953125 228.175781 19.257812 C 225.390625 18.558594 222.589844 17.929688 219.773438 17.371094 C 216.957031 16.808594 214.128906 16.320312 211.289062 15.898438 C 208.449219 15.476562 205.601562 15.125 202.742188 14.84375 C 199.886719 14.5625 197.023438 14.351562 194.15625 14.210938 C 191.285156 14.070312 188.417969 14 185.546875 14 Z M 185.546875 14 "/>
<g clip-path="url(#clip1)" clip-rule="nonzero">
<path style=" stroke:none;fill-rule:nonzero;fill:rgb(100%,100%,100%);fill-opacity:1;" d="M 297.152344 101.585938 C 296.707031 100.074219 294.664062 99.402344 293.523438 100.628906 C 286.695312 107.980469 279.542969 114.8125 270.660156 118.988281 C 270.144531 118.964844 269.628906 118.941406 269.113281 118.921875 C 268.414062 118.890625 268.195312 119.523438 268.355469 120.042969 C 266.980469 120.597656 265.566406 121.089844 264.101562 121.503906 C 260.054688 113.066406 255.597656 104.832031 250.699219 96.886719 C 237.445312 75.375 221.230469 52.921875 195.761719 48.378906 C 195.542969 48.171875 195.285156 47.992188 194.90625 47.957031 C 194.113281 47.886719 193.351562 47.902344 192.570312 47.859375 C 190.890625 47.667969 189.175781 47.53125 187.414062 47.496094 C 186.917969 47.488281 186.546875 47.644531 186.238281 47.863281 C 146.449219 50.007812 120.359375 92.078125 105.800781 133.765625 C 105.3125 133.238281 104.597656 132.929688 103.683594 133.1875 C 92.292969 136.359375 81.175781 135.765625 70.355469 130.933594 C 68.597656 130.148438 66.800781 131.429688 67.175781 133.375 C 69.914062 147.648438 78.085938 173.09375 94.164062 178.40625 C 93.535156 182.039062 93.003906 185.527344 92.59375 188.800781 C 89.011719 217.375 92.800781 243.835938 103.996094 264.628906 C 103.601562 264.632812 103.207031 264.632812 102.8125 264.636719 C 101.953125 264.640625 101.949219 265.96875 102.8125 265.972656 C 103.457031 265.976562 104.101562 265.980469 104.746094 265.984375 C 112.683594 280.132812 124.101562 291.582031 139.167969 299.03125 C 135.214844 301.019531 132.007812 303.558594 131.320312 308.167969 C 130.789062 311.730469 131.835938 315.496094 134.585938 317.921875 C 137.980469 320.917969 143.390625 320.664062 146.796875 318.046875 C 148.605469 326.632812 161.34375 330.390625 167.050781 322.820312 C 168.648438 328.46875 175.160156 331.722656 181.058594 329.960938 C 185.496094 328.636719 189.21875 324.382812 190.433594 319.71875 C 192.402344 324.171875 196.105469 327.734375 201.375 328.875 C 207.378906 330.171875 214.660156 326.800781 216.757812 321.105469 C 219.511719 324.875 224.476562 326.84375 229.171875 325.359375 C 233.101562 324.113281 236.289062 320.386719 236.992188 316.339844 C 241.289062 320.988281 250.105469 319.855469 253.433594 313.886719 C 256.921875 307.625 252.386719 298.128906 245.898438 294.683594 C 252.199219 291.164062 258.097656 286.910156 263.382812 281.757812 C 287.519531 258.207031 289.378906 222.835938 285.292969 191.222656 C 284.054688 181.625 282.0625 172.152344 279.539062 162.820312 C 304.558594 157.320312 302.753906 120.546875 297.152344 101.585938 Z M 82.558594 163.460938 C 84.855469 163.503906 87.152344 163.535156 89.445312 163.394531 C 90.140625 163.351562 90.140625 162.351562 89.445312 162.308594 C 86.910156 162.152344 84.363281 162.203125 81.824219 162.253906 C 80.46875 160 79.285156 157.585938 78.195312 155.121094 C 82.1875 155.363281 86.183594 155.597656 90.183594 155.636719 C 91.425781 155.644531 91.382812 153.84375 90.183594 153.734375 C 85.914062 153.347656 81.628906 153.183594 77.347656 153.015625 C 76.226562 150.269531 75.25 147.484375 74.402344 144.757812 C 77.183594 144.933594 79.960938 145.132812 82.753906 145.195312 C 83.796875 145.21875 83.746094 143.714844 82.753906 143.609375 C 79.792969 143.292969 76.832031 143.113281 73.867188 142.925781 C 73.207031 140.644531 72.621094 138.414062 72.167969 136.324219 C 82.625 140.25 93.503906 140.8125 104.46875 137.65625 C 100.117188 150.734375 96.894531 163.640625 94.746094 175.144531 C 89.847656 172.835938 85.828125 168.585938 82.558594 163.460938 Z M 188.914062 310.636719 C 188.230469 309.976562 186.988281 310.253906 186.976562 311.351562 C 186.929688 317.183594 187.636719 323.070312 181.378906 326.171875 C 175.582031 329.046875 169.742188 325.046875 168.722656 319.078125 C 168.542969 318.023438 167.300781 318.199219 166.855469 318.933594 C 166.527344 318.925781 166.195312 319.054688 165.90625 319.390625 C 159.957031 326.367188 150.542969 323.753906 149.183594 315.210938 C 149.539062 314.453125 149.785156 313.621094 149.871094 312.710938 C 150.007812 311.3125 147.804688 310.738281 147.207031 311.988281 C 145.335938 315.886719 139.863281 318.375 136.480469 314.582031 C 132.109375 309.679688 136.199219 304.085938 140.285156 300.941406 C 140.71875 300.605469 140.777344 300.152344 140.683594 299.75 C 153.058594 305.558594 167.757812 308.789062 184.851562 308.761719 C 186.289062 308.757812 187.730469 308.726562 189.175781 308.6875 C 189.054688 309.335938 188.96875 309.984375 188.914062 310.636719 Z M 250.960938 310.261719 C 250.28125 313.417969 247.441406 316.042969 244.164062 316.125 C 240.9375 316.203125 238.527344 314.117188 236.613281 311.78125 C 236.558594 311.625 236.546875 311.460938 236.476562 311.304688 C 235.882812 309.933594 233.996094 310.785156 233.910156 312 C 233.605469 316.28125 232.488281 320.867188 227.792969 322.273438 C 223.609375 323.523438 219.476562 321.042969 217.351562 317.523438 C 217.335938 317.0625 217.304688 316.59375 217.222656 316.113281 C 216.976562 314.652344 214.917969 314.917969 214.523438 316.113281 C 212.359375 322.679688 207.605469 327.519531 200.148438 324.898438 C 193.230469 322.46875 190.964844 315.257812 191.179688 308.621094 C 208.363281 307.953125 225.878906 304.582031 241.304688 297.078125 C 246.152344 299.601562 252.289062 304.078125 250.960938 310.261719 Z M 262.199219 276.066406 C 242.085938 296.898438 213.03125 304.070312 184.851562 304.191406 C 163.589844 304.28125 142.664062 299.765625 126.496094 287.441406 C 126.492188 287.40625 126.519531 287.386719 126.511719 287.351562 C 117.933594 245.144531 148.117188 211.964844 189.214844 207.597656 C 226.386719 203.644531 255.074219 223.371094 273.992188 253.855469 C 274.445312 254.582031 275.078125 254.839844 275.695312 254.820312 C 272.585938 262.605469 268.222656 269.828125 262.199219 276.066406 Z M 277.113281 251.035156 C 259.847656 214.414062 216.929688 195.644531 177.976562 205.09375 C 142.3125 213.738281 111.871094 248.03125 124.152344 285.621094 C 118.785156 281.140625 114 275.730469 109.984375 269.246094 C 109.324219 268.179688 108.734375 267.089844 108.128906 266.007812 C 110.8125 266.019531 113.492188 266.015625 116.171875 265.910156 C 116.949219 265.878906 116.953125 264.730469 116.171875 264.699219 C 113.226562 264.585938 110.277344 264.589844 107.328125 264.609375 C 105.613281 261.410156 104.121094 258.132812 102.824219 254.796875 C 108.011719 254.914062 113.226562 255.128906 118.398438 254.890625 C 119.324219 254.847656 119.328125 253.492188 118.398438 253.449219 C 113.074219 253.203125 107.710938 253.4375 102.375 253.554688 C 101.257812 250.546875 100.304688 247.488281 99.488281 244.398438 C 102.824219 244.46875 106.15625 244.519531 109.488281 244.433594 C 110.335938 244.410156 110.335938 243.140625 109.488281 243.117188 C 106.066406 243.027344 102.640625 243.078125 99.214844 243.152344 C 98.257812 239.332031 97.578125 235.441406 97.027344 231.53125 C 106.117188 231.777344 115.261719 232.242188 124.339844 231.851562 C 125.269531 231.8125 125.261719 230.46875 124.339844 230.414062 C 115.210938 229.859375 106 230.167969 96.847656 230.25 C 96.199219 225.285156 95.878906 220.261719 95.773438 215.226562 C 100.585938 214.722656 105.386719 214.738281 110.226562 214.785156 C 111.097656 214.792969 111.046875 213.566406 110.226562 213.46875 C 105.390625 212.882812 100.558594 213.238281 95.753906 213.941406 C 95.695312 208.996094 95.90625 204.039062 96.269531 199.097656 C 102.394531 199.257812 108.566406 199.605469 114.6875 199.3125 C 115.746094 199.261719 115.75 197.714844 114.6875 197.664062 C 108.59375 197.371094 102.449219 197.714844 96.347656 197.875 C 96.785156 192.363281 97.472656 186.894531 98.316406 181.488281 C 98.332031 181.492188 98.335938 181.503906 98.355469 181.503906 C 102.0625 181.558594 105.789062 181.734375 109.492188 181.503906 C 110.5625 181.4375 110.566406 179.902344 109.492188 179.835938 C 105.855469 179.609375 102.199219 179.773438 98.558594 179.832031 C 98.589844 179.660156 98.605469 179.484375 98.636719 179.3125 C 99.808594 179.148438 100.074219 177.359375 99.085938 176.75 C 99.457031 174.664062 99.878906 172.519531 100.320312 170.351562 C 105.203125 170.050781 110.121094 169.84375 114.953125 169.171875 C 116 169.027344 115.734375 167.324219 114.707031 167.347656 C 110.042969 167.453125 105.363281 168.011719 100.707031 168.480469 C 101.613281 164.242188 102.65625 159.875 103.839844 155.429688 C 109.191406 155.511719 114.535156 155.605469 119.886719 155.449219 C 120.867188 155.417969 120.867188 153.953125 119.886719 153.925781 C 114.671875 153.769531 109.464844 153.859375 104.25 153.9375 C 105.699219 148.621094 107.355469 143.210938 109.222656 137.785156 C 113.519531 137.863281 117.816406 137.925781 122.113281 137.789062 C 123.296875 137.75 123.296875 135.988281 122.113281 135.949219 C 118.03125 135.816406 113.949219 135.871094 109.867188 135.945312 C 111.734375 130.644531 113.828125 125.351562 116.109375 120.132812 C 121.5625 120.308594 127.105469 120.484375 132.507812 119.96875 C 133.6875 119.855469 133.691406 118.246094 132.507812 118.132812 C 127.433594 117.648438 122.234375 117.773438 117.101562 117.9375 C 118.691406 114.414062 120.394531 110.945312 122.179688 107.53125 C 127.605469 107.582031 133.03125 107.726562 138.445312 107.328125 C 139.601562 107.242188 139.601562 105.617188 138.445312 105.53125 C 133.421875 105.164062 128.382812 105.261719 123.34375 105.316406 C 125.421875 101.476562 127.640625 97.75 129.976562 94.136719 C 137.007812 94.246094 144.039062 94.367188 151.070312 94.140625 C 152.453125 94.097656 152.453125 92.035156 151.070312 91.992188 C 144.511719 91.78125 137.957031 91.878906 131.398438 91.980469 C 134.671875 87.105469 138.203125 82.507812 141.984375 78.257812 C 149.945312 78.453125 158.011719 78.457031 165.921875 77.898438 C 167.144531 77.8125 167.171875 75.992188 165.921875 75.976562 C 158.378906 75.890625 150.722656 76.335938 143.160156 76.949219 C 146.246094 73.589844 149.507812 70.476562 152.933594 67.648438 C 160.769531 67.421875 168.464844 67.8125 176.296875 68.238281 C 177.441406 68.300781 177.734375 66.378906 176.574219 66.207031 C 169.644531 65.179688 162.496094 65.160156 155.480469 65.683594 C 158.710938 63.210938 162.089844 61.007812 165.613281 59.082031 C 170.648438 59.183594 175.75 59.421875 180.765625 59.039062 C 181.878906 58.957031 181.882812 57.390625 180.765625 57.308594 C 176.980469 57.019531 173.152344 57.09375 169.335938 57.1875 C 174.933594 54.535156 180.882812 52.597656 187.230469 51.585938 C 187.296875 51.59375 187.34375 51.628906 187.414062 51.636719 C 241.136719 55.34375 271.839844 139.644531 279.363281 184.300781 C 282.917969 205.402344 284.273438 230.019531 277.113281 251.035156 Z M 278.246094 158.269531 C 277.414062 155.425781 276.519531 152.597656 275.578125 149.785156 C 277.871094 150.035156 280.164062 150.269531 282.46875 150.332031 C 283.292969 150.355469 283.523438 148.976562 282.667969 148.855469 C 280.128906 148.496094 277.570312 148.335938 275.007812 148.175781 C 274.238281 145.933594 273.359375 143.726562 272.523438 141.503906 C 277.074219 141.800781 281.632812 142.148438 286.1875 142.144531 C 287.269531 142.144531 287.226562 140.59375 286.1875 140.496094 C 281.445312 140.039062 276.65625 139.964844 271.890625 139.8125 C 270.398438 135.925781 268.800781 132.074219 267.132812 128.257812 C 272.464844 129.101562 277.828125 130.054688 283.191406 130.4375 C 284.074219 130.5 284.289062 129.039062 283.40625 128.878906 C 277.855469 127.855469 272.152344 127.441406 266.527344 126.882812 C 266.121094 125.980469 265.75 125.0625 265.332031 124.164062 C 268.515625 123.441406 271.460938 122.335938 274.257812 120.988281 C 277.980469 121.203125 281.707031 121.382812 285.441406 121.3125 C 286.351562 121.292969 286.300781 120.035156 285.441406 119.933594 C 282.800781 119.621094 280.152344 119.429688 277.5 119.289062 C 283.464844 115.835938 288.71875 111.203125 293.882812 106.289062 C 298.257812 124.601562 298.558594 151.070312 278.246094 158.269531 Z M 278.246094 158.269531 "/>
</g>
<path style=" stroke:none;fill-rule:nonzero;fill:rgb(100%,100%,100%);fill-opacity:1;" d="M 224.082031 124.527344 C 214.417969 123.394531 204.203125 127.480469 200.433594 135.988281 C 194.46875 121.371094 179.015625 110.6875 163.179688 115.773438 C 146.300781 114.84375 134.652344 134.980469 135.78125 150.425781 C 137.054688 167.804688 152.472656 181.433594 169.902344 179.855469 C 174.710938 179.417969 179.585938 177.839844 184.085938 175.464844 C 184.882812 180.15625 188.242188 185.128906 190.152344 189.222656 C 191.335938 191.761719 192.683594 197.398438 196.59375 196.695312 C 200.480469 195.992188 201.816406 189.507812 203.078125 186.582031 C 205.152344 181.78125 208.34375 176.554688 209.261719 171.324219 C 213.808594 173.101562 219.019531 173.6875 223.222656 173.167969 C 236 171.582031 246.203125 161.675781 246.390625 148.523438 C 246.574219 135.425781 236.765625 126.015625 224.082031 124.527344 Z M 159.679688 118.300781 C 159.625 119.421875 160.484375 120.527344 161.996094 120.199219 C 178.625 116.546875 194.332031 125.167969 197.921875 142.617188 C 201.164062 158.363281 188.355469 171.34375 173.875 174.855469 C 135.289062 184.214844 129.792969 123.847656 159.679688 118.300781 Z M 201.660156 179.3125 C 200.683594 181.601562 199.703125 183.890625 198.726562 186.179688 C 198.316406 187.144531 197.191406 191.359375 196.234375 191.761719 C 195.390625 192.113281 191.363281 183.34375 190.460938 181.636719 C 189.132812 179.125 188.046875 176.414062 186.199219 174.3125 C 191.476562 171.125 196.070312 166.761719 199.109375 161.617188 C 200.136719 165.230469 202.816406 167.929688 206.183594 169.84375 C 204.121094 172.648438 203.027344 176.113281 201.660156 179.3125 Z M 202.285156 157.046875 C 202.167969 156.597656 201.921875 156.292969 201.628906 156.078125 C 202.761719 152.683594 203.257812 149.078125 202.851562 145.320312 C 202.644531 143.382812 202.222656 141.476562 201.683594 139.605469 C 209.679688 121.070312 242.441406 126.847656 241.96875 148.523438 C 241.535156 168.183594 207.925781 178.78125 202.285156 157.046875 Z M 202.285156 157.046875 "/>
<path style=" stroke:none;fill-rule:nonzero;fill:rgb(100%,100%,100%);fill-opacity:1;" d="M 226.835938 152.4375 C 223.457031 149.191406 217.222656 151.304688 217.277344 156.222656 C 217.300781 157.972656 218.304688 159.585938 219.828125 160.304688 C 220.425781 160.867188 221.160156 161.308594 222.101562 161.484375 C 226.929688 162.375 230.414062 155.871094 226.835938 152.4375 Z M 226.835938 152.4375 "/>
<path style=" stroke:none;fill-rule:nonzero;fill:rgb(100%,100%,100%);fill-opacity:1;" d="M 175.75 162.21875 C 174.105469 158.402344 168.761719 157.816406 166.691406 160.941406 C 166.675781 160.9375 166.652344 160.925781 166.636719 160.921875 C 165.996094 160.75 165.382812 161.042969 165.023438 161.578125 C 162.6875 165.085938 164.902344 170.195312 169.152344 170.710938 C 173.695312 171.261719 177.605469 166.53125 175.75 162.21875 Z M 175.75 162.21875 "/>
</g>
</svg>
