<?xml version="1.0" encoding="UTF-8"?>
<svg xmlns="http://www.w3.org/2000/svg" xmlns:xlink="http://www.w3.org/1999/xlink" width="252pt" height="143.999998pt" viewBox="0 0 252 143.999998" version="1.2">
<defs>
<clipPath id="clip1">
  <path d="M 14.410156 22 L 232.324219 22 L 232.324219 121.484375 L 14.410156 121.484375 Z M 14.410156 22 "/>
</clipPath>
<clipPath id="clip2">
  <path d="M 14.410156 21.996094 L 232.324219 21.996094 L 232.324219 121.484375 L 14.410156 121.484375 Z M 14.410156 21.996094 "/>
</clipPath>
</defs>
<g id="surface1">
<g clip-path="url(#clip1)" clip-rule="nonzero">
<path style=" stroke:none;fill-rule:nonzero;fill:rgb(5.879211%,5.488586%,4.708862%);fill-opacity:1;" d="M 232.285156 43.707031 C 231.101562 40.347656 229.707031 37.898438 227.902344 35.996094 C 225.28125 33.234375 220.765625 31.15625 216.585938 32.742188 C 215.503906 33.15625 214.539062 33.785156 213.597656 34.386719 C 212.304688 35.21875 211.082031 36.003906 209.691406 36.199219 C 209.289062 36.257812 208.878906 36.261719 208.433594 36.265625 C 207.800781 36.277344 207.128906 36.285156 206.460938 36.457031 C 204.429688 36.984375 203.261719 38.6875 202.136719 40.335938 C 201.570312 41.160156 200.996094 42.007812 200.320312 42.667969 C 199.375 43.601562 198.171875 44.222656 196.894531 44.886719 C 195.742188 45.492188 194.542969 46.113281 193.515625 47 C 193.148438 47.320312 192.808594 47.671875 192.496094 48.039062 C 191.925781 48.695312 191.421875 49.40625 190.9375 50.09375 C 190.699219 50.4375 190.464844 50.765625 190.222656 51.082031 C 189.941406 51.476562 189.640625 51.851562 189.320312 52.210938 C 188.453125 53.175781 187.390625 53.859375 186.382812 54.140625 C 186.105469 54.21875 185.839844 54.265625 185.578125 54.28125 C 185.5625 54.085938 185.542969 53.882812 185.519531 53.683594 C 185.441406 53.082031 185.3125 52.496094 185.117188 51.933594 C 184.859375 51.179688 184.5 50.472656 184.058594 49.832031 C 183.519531 49.0625 182.9375 48.535156 182.292969 48.199219 C 181.527344 47.816406 180.679688 47.734375 179.90625 47.660156 C 177.566406 47.453125 175.296875 47.320312 173.265625 47.894531 C 172.820312 48.023438 172.382812 48.175781 171.960938 48.378906 C 171.886719 48.292969 171.804688 48.207031 171.722656 48.121094 C 167.296875 43.480469 161.5625 39.167969 153.757812 34.605469 C 144.003906 28.898438 135.675781 25.390625 127.550781 23.570312 C 123.726562 22.714844 119.8125 22.210938 115.839844 22.054688 C 113.265625 21.949219 110.671875 21.992188 108.066406 22.179688 C 107.695312 22.203125 107.339844 22.230469 106.972656 22.261719 C 104.144531 22.507812 101.296875 22.914062 98.457031 23.492188 C 92.601562 24.671875 86.757812 26.550781 81.027344 29.113281 C 80.535156 29.328125 80.039062 29.554688 79.554688 29.78125 C 78.03125 30.5 76.511719 31.261719 75.003906 32.074219 C 68.566406 35.542969 62.308594 39.90625 56.265625 45.117188 C 56.136719 45.226562 56.007812 45.335938 55.882812 45.453125 C 49.449219 51.050781 43.269531 57.621094 37.382812 65.121094 C 37.292969 65.234375 37.203125 65.347656 37.113281 65.464844 C 36.863281 65.429688 36.605469 65.421875 36.355469 65.433594 C 35.214844 65.496094 34.078125 66.007812 33.332031 66.863281 C 32.652344 67.644531 32.242188 68.667969 32.125 69.773438 C 32.027344 70.703125 32.132812 71.691406 32.453125 72.667969 C 32.757812 73.59375 33.222656 74.488281 33.90625 75.464844 C 32.113281 77.316406 29.34375 78.554688 26.371094 78.8125 C 22.625 79.128906 18.828125 78.09375 15.28125 76.925781 C 15.09375 76.863281 14.882812 76.890625 14.71875 77 C 14.550781 77.101562 14.441406 77.28125 14.425781 77.480469 C 14.300781 78.742188 14.945312 80.019531 16.335938 81.28125 C 19.507812 84.160156 24.023438 85.753906 29.058594 85.761719 L 29.109375 85.761719 C 32.691406 85.761719 36.527344 85.007812 41.152344 83.390625 C 42.964844 85.101562 44.875 86.742188 46.871094 88.296875 C 47.203125 88.5625 47.542969 88.824219 47.886719 89.082031 C 50.171875 90.8125 52.570312 92.441406 55.0625 93.964844 C 55.292969 101.734375 57.941406 107.941406 62.535156 111.472656 C 63.492188 112.207031 64.542969 112.84375 65.558594 113.453125 C 66.746094 114.164062 67.894531 114.851562 68.878906 115.683594 C 69.0625 115.839844 69.242188 116 69.421875 116.175781 C 69.835938 116.574219 70.210938 117.019531 70.539062 117.503906 C 70.730469 117.796875 70.90625 118.113281 71.105469 118.449219 C 71.855469 119.730469 72.691406 121.183594 74.320312 121.476562 C 74.359375 121.484375 74.394531 121.484375 74.433594 121.484375 C 74.589844 121.484375 74.730469 121.433594 74.855469 121.335938 C 75.003906 121.214844 75.089844 121.03125 75.089844 120.839844 L 75.152344 115.117188 C 75.300781 115.191406 75.449219 115.273438 75.597656 115.367188 C 75.65625 115.398438 75.730469 115.414062 75.808594 115.414062 C 77.507812 116.378906 79.085938 117.53125 80.515625 118.84375 C 80.679688 118.992188 80.902344 119.050781 81.117188 118.996094 C 81.324219 118.949219 81.496094 118.792969 81.578125 118.589844 C 81.90625 117.691406 82.101562 116.753906 82.148438 115.804688 C 82.171875 115.472656 82.179688 115.144531 82.167969 114.8125 C 84.238281 116.035156 86.273438 117.371094 88.234375 118.796875 C 88.402344 118.917969 88.621094 118.953125 88.816406 118.886719 C 89.015625 118.828125 89.171875 118.671875 89.242188 118.476562 C 90.007812 116.1875 88.789062 113.972656 87.253906 112.035156 C 88.242188 111.941406 89.253906 112.085938 90.171875 112.457031 C 90.382812 112.542969 90.632812 112.507812 90.816406 112.367188 C 90.996094 112.226562 91.09375 112 91.066406 111.773438 C 90.859375 110.128906 89.386719 109.132812 88.199219 108.332031 L 87.96875 108.179688 C 87.628906 107.953125 87.300781 107.714844 86.992188 107.472656 C 86.03125 106.726562 85.160156 105.890625 84.375 104.960938 C 85.214844 105.066406 86.046875 105.171875 86.867188 105.265625 C 87.429688 105.335938 87.996094 105.402344 88.550781 105.46875 C 93.34375 106.023438 97.839844 106.46875 102.222656 106.746094 C 102.773438 106.785156 103.332031 106.816406 103.882812 106.847656 C 104.328125 106.871094 104.765625 106.894531 105.210938 106.910156 C 108.34375 107.066406 111.429688 107.132812 114.53125 107.085938 C 123.945312 106.945312 132.59375 105.746094 140.316406 103.515625 C 141.886719 103.066406 143.410156 102.574219 144.894531 102.039062 L 144.902344 102.039062 C 145.613281 102.847656 146.339844 103.617188 147.082031 104.34375 C 148.976562 106.210938 150.96875 107.816406 153.046875 109.152344 C 155.109375 110.476562 157.25 111.53125 159.464844 112.320312 C 160.015625 112.515625 160.582031 112.699219 161.144531 112.882812 C 162.886719 113.441406 164.53125 113.972656 165.9375 114.949219 C 166.523438 115.347656 167.058594 115.816406 167.628906 116.316406 C 168.808594 117.347656 170.027344 118.414062 171.632812 118.804688 C 171.683594 118.820312 171.734375 118.824219 171.78125 118.824219 C 171.957031 118.824219 172.117188 118.757812 172.246094 118.636719 C 172.40625 118.476562 172.476562 118.246094 172.421875 118.023438 C 172.109375 116.660156 171.707031 115.304688 171.226562 113.976562 C 173.238281 115.027344 175.359375 115.855469 177.542969 116.457031 C 177.777344 116.523438 178.03125 116.453125 178.199219 116.273438 C 178.359375 116.097656 178.417969 115.839844 178.328125 115.609375 C 177.644531 113.703125 176.707031 111.929688 175.527344 110.308594 C 177.496094 110.683594 179.476562 111.058594 181.441406 111.433594 C 181.675781 111.476562 181.914062 111.398438 182.066406 111.222656 C 182.214844 111.046875 182.261719 110.800781 182.183594 110.582031 C 181.449219 108.488281 180.011719 106.660156 178.179688 105.398438 C 179.054688 105.496094 179.925781 105.675781 180.757812 105.933594 C 180.996094 106.007812 181.25 105.9375 181.429688 105.753906 C 181.597656 105.570312 181.652344 105.304688 181.558594 105.074219 C 180.488281 102.289062 177.648438 100.238281 174.664062 100.097656 C 174.570312 100.09375 174.476562 100.085938 174.378906 100.085938 C 174.285156 100.082031 174.1875 100.082031 174.09375 100.078125 C 173.800781 100.074219 173.527344 100.070312 173.265625 100.035156 C 173.136719 100.023438 173.019531 100 172.910156 99.96875 C 172.554688 99.871094 172.207031 99.671875 171.832031 99.457031 C 171.738281 99.40625 171.644531 99.351562 171.546875 99.296875 C 170.367188 98.648438 169.058594 98.222656 167.730469 98.039062 C 167.570312 98.015625 167.410156 97.996094 167.253906 97.984375 C 167.230469 97.773438 167.207031 97.570312 167.175781 97.363281 C 167.164062 97.253906 167.144531 97.132812 167.125 97.023438 C 167.019531 96.402344 166.875 95.796875 166.6875 95.199219 C 171.265625 95.074219 176.03125 93.507812 180.199219 90.738281 C 182.554688 89.175781 184.703125 87.289062 186.777344 85.460938 C 186.820312 85.417969 186.867188 85.378906 186.917969 85.335938 C 187.660156 84.683594 188.410156 84.03125 189.175781 83.382812 C 191.25 81.636719 193.421875 79.980469 195.824219 78.78125 C 197.558594 77.914062 199.449219 77.265625 201.273438 76.632812 C 203.738281 75.789062 206.28125 74.914062 208.542969 73.488281 C 211.40625 71.683594 213.625 69.152344 215.777344 66.703125 L 221.460938 60.222656 C 223.550781 57.84375 225.710938 55.382812 227.179688 52.457031 C 228.371094 50.078125 228.949219 47.554688 228.8125 45.269531 C 228.8125 45.179688 228.808594 45.085938 228.800781 44.996094 C 229.015625 44.925781 229.234375 44.863281 229.464844 44.8125 C 230.183594 44.648438 230.929688 44.566406 231.664062 44.578125 C 231.871094 44.601562 232.082031 44.480469 232.199219 44.308594 C 232.328125 44.132812 232.355469 43.914062 232.285156 43.707031 "/>
</g>
<g clip-path="url(#clip2)" clip-rule="nonzero">
<path style=" stroke:none;fill-rule:nonzero;fill:rgb(5.879211%,5.488586%,4.708862%);fill-opacity:1;" d="M 214.917969 47.5 C 214.585938 48.117188 214.046875 48.574219 213.542969 49.0625 C 213.347656 49.257812 213.035156 49.339844 212.777344 49.199219 C 212.546875 49.078125 212.476562 48.769531 212.664062 48.578125 C 213.175781 48.0625 213.664062 47.5 214.300781 47.128906 C 214.554688 46.988281 215.121094 47.117188 214.917969 47.5 Z M 215.355469 42.691406 C 213.730469 42.703125 212.089844 42.867188 210.742188 43.875 C 209.292969 44.964844 208.722656 46.574219 208.367188 48.28125 C 208.265625 48.777344 207.265625 48.992188 207.183594 48.382812 C 206.601562 44.050781 211.695312 40.085938 215.730469 41.96875 C 216.230469 42.203125 215.695312 42.691406 215.355469 42.691406 Z M 223.542969 36.339844 C 223.832031 36.589844 223.492188 36.929688 223.222656 36.976562 C 222.539062 37.085938 221.867188 36.886719 221.214844 36.667969 C 220.734375 36.515625 220.066406 36.355469 219.738281 35.949219 C 219.636719 35.820312 219.730469 35.671875 219.871094 35.625 C 220.445312 35.453125 221.085938 35.597656 221.660156 35.6875 C 222.324219 35.792969 223.039062 35.898438 223.542969 36.339844 Z M 227.863281 43.9375 C 227.855469 43.941406 227.839844 43.949219 227.832031 43.949219 C 224.621094 44.003906 222.230469 46.535156 220.847656 49.410156 C 219.832031 51.539062 219.230469 53.847656 217.894531 55.828125 C 215.941406 58.707031 212.804688 59.242188 209.671875 58.101562 C 209.417969 58.007812 209.066406 58.300781 209.347656 58.519531 C 212.195312 60.757812 216.199219 59.933594 218.539062 57.335938 C 221.453125 54.101562 222.203125 45.332031 227.492188 45.1875 C 227.652344 47.285156 227.125 49.640625 226.011719 51.875 C 224.621094 54.644531 222.515625 57.042969 220.480469 59.359375 L 214.792969 65.84375 C 212.710938 68.222656 210.554688 70.679688 207.847656 72.382812 C 205.710938 73.726562 203.234375 74.582031 200.847656 75.402344 C 198.980469 76.042969 197.050781 76.707031 195.238281 77.617188 C 191.792969 79.335938 188.875 81.886719 186.042969 84.371094 C 183.582031 85.105469 181.046875 85.171875 178.390625 85.367188 C 175.921875 85.546875 173.398438 85.871094 171.378906 87.398438 C 171.253906 87.496094 171.425781 87.632812 171.535156 87.59375 C 175.109375 86.402344 178.539062 86.523438 182.230469 86.265625 C 182.859375 86.222656 183.480469 86.160156 184.097656 86.070312 C 182.617188 87.335938 181.085938 88.578125 179.480469 89.648438 C 175.441406 92.335938 170.8125 93.832031 166.398438 93.898438 C 165.6875 91.914062 164.09375 90.070312 162.175781 88.96875 C 163.121094 88.289062 164.046875 87.589844 164.957031 86.863281 C 165.292969 86.601562 165.609375 86.335938 165.9375 86.070312 C 170.039062 82.691406 173.753906 78.835938 176.960938 74.453125 C 177.210938 74.117188 177.449219 73.777344 177.691406 73.433594 C 177.738281 73.363281 177.785156 73.296875 177.832031 73.226562 C 179.617188 70.667969 181.179688 67.964844 182.5 65.167969 C 182.726562 64.707031 182.9375 64.25 183.136719 63.785156 C 184.3125 61.125 185.277344 58.371094 186.027344 55.546875 C 187.566406 55.339844 189 54.40625 190.003906 53.394531 C 189.949219 56.292969 190.765625 59.242188 192.1875 61.804688 C 192.398438 62.191406 193.21875 61.9375 192.992188 61.5 C 191.289062 58.21875 191.027344 54.777344 191.625 51.378906 C 191.757812 51.199219 191.878906 51.019531 192.007812 50.84375 C 192.753906 49.785156 193.453125 48.78125 194.378906 47.980469 C 195.28125 47.195312 196.363281 46.636719 197.5 46.042969 C 198.800781 45.367188 200.144531 44.667969 201.242188 43.59375 C 202 42.847656 202.621094 41.945312 203.214844 41.070312 C 204.25 39.554688 205.230469 38.125 206.789062 37.71875 C 207.304688 37.589844 207.859375 37.582031 208.457031 37.570312 C 208.910156 37.566406 209.386719 37.558594 209.875 37.492188 C 211.550781 37.257812 212.957031 36.359375 214.304688 35.484375 C 215.230469 34.886719 216.101562 34.328125 217.050781 33.960938 C 219.660156 32.972656 223.730469 33.496094 226.953125 36.890625 C 228.472656 38.496094 229.683594 40.550781 230.742188 43.300781 C 229.753906 43.371094 228.773438 43.589844 227.863281 43.9375 Z M 165.945312 98.074219 C 165.199219 98.554688 164.453125 99.042969 163.65625 99.457031 C 162.824219 99.894531 161.914062 100.203125 161.113281 100.699219 C 160.785156 100.894531 161.054688 101.214844 161.347656 101.199219 C 163.035156 101.113281 164.90625 100.277344 166.390625 99.195312 C 166.460938 99.226562 166.539062 99.242188 166.621094 99.246094 C 168.117188 99.308594 169.601562 99.722656 170.910156 100.4375 L 171.183594 100.589844 C 171.605469 100.832031 172.039062 101.082031 172.554688 101.226562 C 172.640625 101.253906 172.734375 101.269531 172.8125 101.289062 C 172.601562 102.597656 173.058594 104.03125 174.210938 104.710938 C 172.898438 105.667969 172.148438 107.570312 172.796875 109.054688 C 172.109375 109.007812 171.394531 109.207031 170.828125 109.589844 C 170.070312 110.105469 169.628906 110.921875 169.574219 111.777344 C 167.609375 111.160156 164.90625 111.1875 164.515625 112.699219 C 163.539062 112.28125 162.539062 111.957031 161.546875 111.636719 C 160.996094 111.460938 160.445312 111.28125 159.90625 111.089844 C 157.78125 110.335938 155.726562 109.320312 153.742188 108.050781 C 151.203125 106.414062 148.789062 104.359375 146.527344 101.894531 C 145.894531 100.757812 145.257812 99.625 144.644531 98.476562 C 148.339844 96.996094 151.917969 95.285156 155.351562 93.328125 C 155.6875 93.136719 156.03125 92.941406 156.371094 92.742188 L 156.371094 92.738281 C 157.914062 91.832031 159.429688 90.867188 160.910156 89.847656 C 161.480469 90.1875 162.023438 90.574219 162.539062 91.058594 C 163.605469 92.058594 164.402344 93.277344 165.113281 94.546875 L 165.113281 94.550781 C 165.113281 94.632812 165.121094 94.707031 165.15625 94.785156 C 165.460938 95.582031 165.6875 96.402344 165.835938 97.234375 C 165.886719 97.511719 165.921875 97.789062 165.945312 98.074219 Z M 139.960938 102.265625 C 133.707031 104.066406 126.835938 105.183594 119.417969 105.605469 C 119.003906 105.632812 118.589844 105.652344 118.164062 105.671875 C 117.230469 105.714844 116.285156 105.746094 115.335938 105.761719 C 116.21875 105.65625 117.109375 105.539062 117.992188 105.417969 C 118.417969 105.359375 118.832031 105.296875 119.257812 105.230469 C 127.363281 104.015625 135.472656 102.007812 143.148438 99.066406 C 143.476562 99.691406 143.816406 100.308594 144.183594 100.910156 C 142.8125 101.394531 141.402344 101.847656 139.960938 102.265625 Z M 106.847656 105.679688 C 106.328125 105.664062 105.804688 105.636719 105.273438 105.613281 C 104.753906 105.589844 104.222656 105.5625 103.699219 105.53125 C 103.539062 104.503906 103.367188 103.480469 103.300781 102.449219 C 103.222656 101.253906 103.25 100.0625 103.28125 98.871094 L 103.296875 98.871094 C 106.847656 98.890625 110.652344 98.890625 114.273438 98.421875 C 114.5625 98.386719 114.855469 98.34375 115.148438 98.300781 C 115.175781 98.4375 115.199219 98.582031 115.238281 98.726562 C 115.625 100.628906 116.34375 102.53125 117.257812 104.195312 C 116.554688 104.3125 115.84375 104.425781 115.140625 104.535156 C 112.382812 104.960938 109.617188 105.332031 106.847656 105.679688 Z M 102.109375 97.667969 L 102.050781 97.667969 C 97.339844 97.695312 92.679688 97.300781 87.996094 96.96875 L 87.222656 96.917969 C 87.074219 96.8125 86.929688 96.710938 86.78125 96.613281 C 86.28125 96.277344 85.777344 95.949219 85.332031 95.59375 C 84.96875 95.304688 84.570312 94.859375 84.132812 94.460938 C 83.785156 94.140625 83.425781 93.859375 83.050781 93.707031 C 83.070312 93.636719 83.089844 93.566406 83.113281 93.5 C 84.617188 88.664062 86.132812 83.828125 87.769531 79.027344 C 89.53125 73.851562 91.707031 68.757812 93.503906 63.578125 C 93.550781 63.441406 93.601562 63.3125 93.640625 63.175781 C 93.761719 63.125 93.878906 63.070312 93.988281 63.007812 C 96.117188 61.925781 98.191406 60.101562 99.871094 58.84375 C 101.960938 57.289062 103.964844 55.644531 105.855469 53.875 C 106.09375 53.664062 106.320312 53.445312 106.546875 53.222656 C 106.648438 53.316406 106.757812 53.402344 106.867188 53.484375 C 108.957031 55.179688 111.15625 56.75 113.273438 58.398438 C 115.117188 59.828125 116.921875 61.410156 118.84375 62.773438 C 118.84375 62.785156 118.84375 62.800781 118.851562 62.8125 C 118.871094 63.179688 118.894531 63.554688 118.929688 63.925781 C 119.269531 68.328125 119.992188 72.753906 120.617188 77.070312 C 121.023438 79.890625 121.476562 82.703125 121.972656 85.511719 C 122.296875 87.375 122.476562 89.496094 122.953125 91.445312 C 121.984375 92.105469 121.070312 92.832031 120.179688 93.488281 C 118.917969 94.421875 117.703125 95.398438 116.515625 96.414062 C 116.414062 96.484375 116.328125 96.570312 116.230469 96.648438 C 116.167969 96.695312 116.117188 96.742188 116.058594 96.789062 C 115.695312 96.824219 115.320312 96.859375 114.949219 96.902344 C 113.5625 97.054688 112.175781 97.238281 110.800781 97.34375 C 108.300781 97.527344 105.804688 97.625 103.300781 97.65625 C 102.902344 97.664062 102.503906 97.664062 102.109375 97.667969 Z M 88.28125 104.121094 C 88.007812 102.921875 87.707031 101.738281 87.683594 100.457031 C 87.675781 99.925781 87.6875 99.398438 87.730469 98.875 C 87.753906 98.539062 87.796875 98.207031 87.847656 97.878906 C 88.0625 97.917969 88.273438 97.953125 88.488281 97.976562 C 92.914062 98.65625 97.476562 98.835938 101.902344 98.859375 C 101.617188 100.945312 101.59375 103.300781 101.941406 105.417969 C 97.574219 105.132812 93.066406 104.683594 88.28125 104.121094 Z M 82.972656 103.476562 C 81.878906 103.339844 80.78125 103.199219 79.6875 103.058594 C 77.601562 102.492188 75.546875 101.863281 73.523438 101.167969 C 73.53125 101.082031 73.550781 100.996094 73.558594 100.910156 C 73.707031 99.679688 73.890625 98.480469 74.335938 97.277344 C 74.589844 96.5625 74.929688 95.894531 75.304688 95.246094 C 75.503906 95.257812 75.695312 95.273438 75.890625 95.28125 C 76.039062 95.289062 76.1875 95.296875 76.34375 95.296875 C 76.886719 95.328125 77.4375 95.34375 77.988281 95.339844 C 79.167969 95.332031 80.351562 95.265625 81.488281 95.09375 C 81.863281 95.039062 82.238281 94.96875 82.597656 94.890625 C 82.617188 94.917969 82.632812 94.941406 82.65625 94.96875 C 83.144531 95.585938 83.882812 96.171875 84.21875 96.484375 C 84.375 96.628906 84.539062 96.773438 84.699219 96.917969 C 84.875 97.074219 85.050781 97.230469 85.230469 97.382812 C 85.609375 97.699219 86.007812 98 86.421875 98.25 C 86.085938 100.125 86.019531 102.117188 86.429688 103.902344 C 85.292969 103.765625 84.140625 103.621094 82.972656 103.476562 Z M 85.011719 107.503906 C 84.820312 108.597656 84.941406 109.816406 85.398438 110.855469 C 83.949219 110.464844 82.148438 111.121094 81.25 112.390625 C 79.738281 111.195312 77.453125 111.160156 75.550781 111.898438 C 74.730469 112.210938 73.976562 112.671875 73.382812 113.246094 C 72.046875 113.148438 70.613281 113.664062 69.640625 114.628906 C 68.589844 113.746094 67.398438 113.035156 66.230469 112.332031 C 65.25 111.742188 64.230469 111.128906 63.335938 110.441406 C 57.972656 106.320312 56.65625 99.277344 56.410156 94.769531 C 56.453125 94.792969 56.492188 94.816406 56.535156 94.835938 C 56.773438 94.980469 57.015625 95.121094 57.257812 95.253906 C 57.511719 95.402344 57.765625 95.546875 58.019531 95.6875 C 58.441406 95.925781 58.871094 96.15625 59.289062 96.382812 C 59.421875 96.457031 59.554688 96.523438 59.6875 96.59375 C 59.824219 96.667969 59.964844 96.738281 60.097656 96.808594 C 60.347656 96.9375 60.59375 97.070312 60.847656 97.195312 L 60.847656 97.199219 C 61.058594 97.308594 61.269531 97.414062 61.476562 97.515625 C 61.71875 97.636719 61.960938 97.761719 62.199219 97.875 C 62.363281 97.960938 62.535156 98.042969 62.703125 98.121094 C 63.027344 98.277344 63.34375 98.433594 63.671875 98.582031 C 63.902344 98.695312 64.144531 98.804688 64.378906 98.910156 C 64.785156 99.101562 65.199219 99.285156 65.617188 99.46875 C 66.050781 99.660156 66.488281 99.851562 66.925781 100.035156 C 67.128906 100.121094 67.328125 100.203125 67.53125 100.28125 C 67.765625 100.386719 68.003906 100.488281 68.25 100.582031 C 68.359375 100.628906 68.46875 100.675781 68.578125 100.71875 C 68.910156 100.851562 69.242188 100.988281 69.585938 101.113281 C 69.757812 101.183594 69.9375 101.253906 70.113281 101.316406 C 70.402344 101.429688 70.699219 101.542969 70.996094 101.648438 C 71.253906 101.75 71.519531 101.839844 71.777344 101.929688 C 72.03125 102.027344 72.292969 102.121094 72.550781 102.210938 C 72.71875 102.269531 72.886719 102.328125 73.050781 102.382812 C 73.160156 102.421875 73.261719 102.457031 73.371094 102.496094 C 73.695312 102.605469 74.019531 102.714844 74.34375 102.816406 C 71.6875 103.046875 68.828125 104.234375 67.152344 105.976562 C 66.90625 106.226562 67.277344 106.507812 67.539062 106.398438 C 68.996094 105.785156 70.355469 105.011719 71.894531 104.578125 C 73.453125 104.148438 75.050781 104.0625 76.640625 103.8125 C 76.769531 103.792969 76.878906 103.726562 76.964844 103.636719 C 77.769531 103.878906 78.574219 104.109375 79.386719 104.328125 C 79.417969 104.335938 79.445312 104.339844 79.472656 104.34375 C 80.492188 104.480469 81.507812 104.605469 82.523438 104.730469 C 82.59375 104.828125 82.664062 104.917969 82.738281 105.011719 C 83.425781 105.914062 84.1875 106.746094 85.011719 107.503906 Z M 48.582031 87.964844 C 49.707031 86.257812 51.027344 84.753906 52.460938 83.300781 C 53.304688 83.792969 54.15625 84.261719 54.949219 84.734375 C 55.117188 84.835938 55.289062 84.933594 55.457031 85.035156 C 57.746094 86.386719 60.078125 87.671875 62.425781 88.914062 C 62.597656 89.003906 62.773438 89.101562 62.953125 89.1875 C 61.320312 90.777344 60.238281 92.902344 59.839844 95.195312 C 58.558594 94.503906 57.292969 93.785156 56.046875 93.03125 C 53.449219 91.464844 50.957031 89.777344 48.582031 87.964844 Z M 47.519531 87.144531 C 45.507812 85.566406 43.585938 83.90625 41.769531 82.171875 L 40.398438 80.839844 C 40.171875 80.613281 39.949219 80.386719 39.722656 80.15625 C 39.355469 79.773438 38.988281 79.390625 38.621094 79 C 38.234375 78.582031 37.851562 78.160156 37.464844 77.734375 C 38.53125 76.621094 39.675781 75.621094 40.894531 74.660156 C 40.960938 74.605469 41.027344 74.550781 41.097656 74.503906 C 41.546875 74.660156 42.011719 74.789062 42.492188 74.894531 C 43.707031 75.171875 44.992188 75.285156 46.195312 75.253906 C 46.546875 75.246094 46.890625 75.222656 47.226562 75.195312 C 47.238281 75.3125 47.25 75.429688 47.277344 75.546875 C 47.480469 76.773438 48.230469 78.042969 48.664062 79.109375 C 48.808594 79.46875 48.945312 79.84375 49.085938 80.214844 C 49.226562 80.597656 49.363281 80.980469 49.519531 81.359375 C 49.769531 82.003906 50.054688 82.628906 50.414062 83.195312 C 49.308594 84.394531 48.339844 85.738281 47.519531 87.144531 Z M 29.109375 84.457031 L 29.058594 84.457031 C 24.355469 84.449219 20.148438 82.976562 17.214844 80.316406 C 16.503906 79.675781 16.046875 79.058594 15.84375 78.476562 C 19.234375 79.550781 22.832031 80.421875 26.457031 80.109375 L 26.488281 80.109375 C 29.734375 79.828125 32.679688 78.535156 34.703125 76.515625 C 34.976562 76.859375 35.25 77.179688 35.496094 77.46875 C 35.578125 77.5625 35.65625 77.65625 35.738281 77.75 C 36.019531 78.074219 36.296875 78.390625 36.585938 78.703125 C 36.589844 78.710938 36.597656 78.71875 36.609375 78.730469 C 36.957031 79.121094 37.3125 79.507812 37.675781 79.894531 C 38.121094 80.378906 38.578125 80.851562 39.039062 81.320312 C 39.316406 81.605469 39.597656 81.886719 39.878906 82.164062 C 39.949219 82.238281 40.023438 82.308594 40.09375 82.378906 C 35.890625 83.792969 32.378906 84.457031 29.109375 84.457031 Z M 33.695312 72.257812 C 33.46875 71.5625 33.34375 70.71875 33.425781 69.886719 C 33.507812 69.113281 33.777344 68.347656 34.324219 67.71875 C 34.921875 67.035156 35.929688 66.65625 36.847656 66.753906 C 37.660156 68.863281 38.636719 71.035156 39.804688 72.988281 C 39.894531 73.140625 39.988281 73.292969 40.082031 73.445312 C 39.914062 73.5625 39.746094 73.6875 39.578125 73.816406 C 38.480469 74.664062 37.472656 75.644531 36.570312 76.714844 C 36.546875 76.683594 36.515625 76.648438 36.488281 76.621094 C 36.117188 76.179688 35.675781 75.664062 35.269531 75.121094 C 34.5 74.089844 34 73.179688 33.695312 72.257812 Z M 56.214844 46.894531 C 56.820312 48.894531 57.921875 50.894531 58.574219 52.789062 C 59.179688 54.515625 59.59375 56.332031 60.167969 58.078125 C 60.121094 58.128906 60.070312 58.179688 60.027344 58.230469 C 59.703125 58.597656 59.390625 58.964844 59.078125 59.320312 C 59.027344 59.375 58.976562 59.433594 58.929688 59.484375 C 57.203125 61.429688 55.507812 63.394531 53.855469 65.398438 C 51.632812 68.085938 49.488281 70.828125 47.414062 73.621094 C 47.355469 73.691406 47.300781 73.761719 47.246094 73.835938 C 45.972656 73.789062 44.703125 73.816406 43.425781 73.652344 C 43.089844 73.609375 42.753906 73.554688 42.421875 73.492188 C 42.191406 73.449219 41.960938 73.402344 41.730469 73.355469 C 41.597656 73.113281 41.464844 72.875 41.328125 72.636719 C 40.765625 71.636719 40.167969 70.652344 39.640625 69.65625 C 39.074219 68.589844 38.546875 67.507812 38.023438 66.425781 C 43.808594 58.984375 49.886719 52.460938 56.214844 46.894531 Z M 75.628906 33.222656 C 76.839844 32.570312 78.054688 31.945312 79.289062 31.355469 C 78.21875 38.195312 78.257812 45.382812 78.613281 52.335938 C 78.574219 52.34375 78.542969 52.351562 78.503906 52.363281 C 78.199219 52.445312 77.890625 52.527344 77.589844 52.613281 C 75.074219 53.316406 72.582031 54.183594 70.125 54.949219 C 67.699219 55.703125 65.28125 56.484375 62.878906 57.285156 C 62.445312 57.425781 62.011719 57.566406 61.574219 57.710938 C 61.515625 57.40625 61.4375 57.097656 61.347656 56.792969 C 60.847656 54.957031 60.089844 53.140625 59.429688 51.429688 C 58.777344 49.742188 58.113281 47.730469 57.066406 46.148438 C 63.054688 40.980469 69.25 36.65625 75.628906 33.222656 Z M 61.109375 95.367188 C 61.601562 93.171875 62.703125 91.359375 64.300781 89.890625 C 66.089844 90.816406 67.894531 91.707031 69.71875 92.558594 C 70.835938 93.082031 72.007812 93.703125 73.207031 94.253906 C 73.492188 94.386719 73.789062 94.515625 74.085938 94.632812 C 73.976562 94.792969 73.890625 94.953125 73.800781 95.125 C 72.855469 96.847656 72.328125 98.859375 72.390625 100.765625 C 70.917969 100.238281 69.460938 99.679688 68.027344 99.082031 C 65.632812 98.085938 63.296875 97 61.023438 95.8125 C 61.046875 95.664062 61.078125 95.515625 61.109375 95.367188 Z M 80.078125 54.28125 C 82.089844 55.601562 84.132812 56.878906 86.09375 58.28125 C 88.101562 59.71875 90.027344 61.371094 92.097656 62.75 C 92.035156 62.886719 91.976562 63.015625 91.917969 63.148438 C 91.820312 63.367188 91.730469 63.589844 91.628906 63.8125 C 89.53125 68.800781 87.902344 74.078125 86.226562 79.144531 C 84.6875 83.789062 83.238281 88.464844 81.980469 93.195312 C 81.949219 93.3125 81.917969 93.425781 81.882812 93.542969 C 80.761719 93.628906 79.632812 93.804688 78.53125 93.894531 C 77.820312 93.949219 77.105469 93.996094 76.394531 94.042969 C 76.3125 93.988281 76.226562 93.941406 76.136719 93.898438 C 75.777344 93.699219 75.402344 93.511719 75.019531 93.335938 C 73.648438 92.710938 72.195312 92.203125 70.9375 91.617188 C 69.089844 90.757812 67.25 89.878906 65.429688 88.96875 C 64.972656 88.746094 64.507812 88.515625 64.046875 88.273438 C 63.777344 88.144531 63.507812 88.003906 63.238281 87.871094 C 60.820312 86.636719 58.425781 85.34375 56.046875 84.035156 C 55.140625 83.539062 54.238281 82.980469 53.328125 82.433594 C 52.886719 82.167969 52.445312 81.90625 52.003906 81.652344 C 51.789062 81.535156 51.582031 81.410156 51.367188 81.300781 C 50.898438 80.140625 50.257812 79.011719 49.777344 77.945312 C 49.339844 76.980469 49.003906 75.863281 48.363281 75.019531 C 48.253906 74.878906 48.140625 74.746094 48.011719 74.625 C 48.101562 74.507812 48.199219 74.386719 48.289062 74.277344 C 48.378906 74.15625 48.476562 74.042969 48.566406 73.925781 C 50.546875 71.457031 52.5625 69.015625 54.609375 66.609375 C 56.214844 64.71875 57.835938 62.851562 59.484375 61.003906 C 59.890625 60.550781 60.316406 60.097656 60.753906 59.644531 C 61.078125 59.296875 61.417969 58.945312 61.746094 58.582031 L 61.75 58.582031 C 64.773438 57.746094 67.804688 56.898438 70.816406 55.996094 C 73.410156 55.21875 76.089844 54.523438 78.683594 53.640625 C 78.769531 53.609375 78.871094 53.578125 78.964844 53.542969 C 79.160156 53.679688 79.355469 53.808594 79.554688 53.9375 C 79.730469 54.058594 79.90625 54.171875 80.078125 54.28125 Z M 80.070312 53.144531 C 80.070312 52.757812 80.070312 52.367188 80.078125 51.980469 C 80.085938 48.867188 80.15625 45.75 80.273438 42.640625 C 80.425781 38.613281 80.871094 34.582031 81 30.554688 C 86.816406 27.902344 92.765625 25.964844 98.710938 24.761719 C 101.414062 24.21875 104.113281 23.828125 106.808594 23.582031 C 106.246094 28.390625 106.300781 33.324219 106.171875 38.148438 C 106.042969 42.648438 105.890625 47.15625 105.867188 51.65625 C 105.855469 51.847656 105.855469 52.035156 105.855469 52.222656 C 105.777344 52.296875 105.6875 52.367188 105.609375 52.433594 C 103.378906 54.328125 101.152344 56.210938 98.839844 57.988281 C 97.414062 59.085938 95.960938 60.148438 94.492188 61.195312 C 94.414062 61.253906 94.332031 61.308594 94.246094 61.371094 C 93.886719 61.617188 93.511719 61.851562 93.15625 62.105469 C 92.980469 61.929688 92.800781 61.753906 92.617188 61.585938 C 90.671875 59.777344 88.3125 58.285156 86.160156 56.84375 C 84.1875 55.53125 82.171875 54.253906 80.070312 53.148438 Z M 107.023438 51.234375 C 107.320312 46.863281 107.492188 42.480469 107.695312 38.105469 C 107.921875 33.269531 108.351562 28.332031 108.132812 23.472656 C 110.707031 23.292969 113.261719 23.25 115.792969 23.347656 C 119.691406 23.507812 123.527344 24 127.261719 24.839844 C 130.09375 25.476562 132.949219 26.320312 135.894531 27.398438 C 135.882812 27.53125 135.871094 27.671875 135.871094 27.804688 C 135.632812 32.003906 135.660156 36.195312 135.710938 40.394531 C 135.738281 43.28125 135.632812 46.265625 135.773438 49.199219 C 135.792969 49.617188 135.820312 50.03125 135.847656 50.449219 C 135.847656 50.457031 135.847656 50.46875 135.851562 50.480469 C 132.941406 52.3125 130.179688 54.402344 127.402344 56.4375 C 124.964844 58.222656 122.429688 59.949219 120.046875 61.835938 C 120.03125 61.824219 120.023438 61.8125 120.007812 61.804688 C 119.605469 61.433594 119.179688 61.074219 118.753906 60.734375 C 117.128906 59.410156 115.375 58.21875 113.742188 57.019531 C 111.632812 55.472656 109.507812 53.886719 107.273438 52.5 C 107.171875 52.429688 107.0625 52.367188 106.953125 52.304688 L 106.953125 52.296875 C 106.980469 51.941406 107.007812 51.585938 107.023438 51.234375 Z M 153.101562 35.730469 C 161.0625 40.386719 166.835938 44.773438 171.234375 49.511719 C 170.484375 51.785156 169.867188 54.125 169.199219 56.398438 C 169.046875 56.910156 168.886719 57.429688 168.730469 57.945312 C 168.699219 57.984375 168.6875 58.027344 168.691406 58.066406 C 167.859375 60.742188 166.957031 63.46875 166.429688 66.199219 C 166.382812 66.457031 166.335938 66.707031 166.296875 66.964844 C 166.273438 67.050781 166.265625 67.144531 166.25 67.230469 C 164.835938 68.054688 163.429688 68.8125 161.945312 69.460938 C 161.84375 69.507812 161.738281 69.550781 161.636719 69.597656 C 161.425781 69.4375 161.210938 69.273438 161.003906 69.109375 C 160.695312 68.859375 160.378906 68.613281 160.070312 68.363281 C 157.277344 66.109375 154.457031 63.871094 151.648438 61.632812 C 147.007812 57.929688 142.425781 53.984375 137.59375 50.488281 C 137.480469 50.402344 137.367188 50.316406 137.25 50.238281 C 137.265625 50.050781 137.277344 49.859375 137.289062 49.667969 C 137.464844 46.554688 137.335938 43.382812 137.355469 40.316406 C 137.394531 36.167969 137.40625 32.015625 137.167969 27.875 C 142.144531 29.800781 147.371094 32.378906 153.101562 35.730469 Z M 168.414062 67.105469 C 168.234375 67.015625 168.066406 66.9375 167.886719 66.855469 C 167.710938 66.773438 167.53125 66.695312 167.363281 66.617188 C 167.375 66.59375 167.382812 66.578125 167.382812 66.554688 C 168.464844 64.023438 169.246094 61.308594 170.027344 58.652344 C 172.148438 59.390625 174.359375 59.832031 176.40625 60.871094 C 178.089844 61.726562 179.566406 62.8125 181.015625 63.96875 C 179.714844 66.777344 178.179688 69.46875 176.457031 72.03125 C 174.027344 70.0625 171.21875 68.445312 168.414062 67.105469 Z M 161.65625 81.242188 C 160.863281 80.445312 160.023438 79.59375 159.136719 78.8125 C 159.058594 78.738281 158.972656 78.667969 158.894531 78.597656 C 159.082031 78.148438 159.25 77.699219 159.429688 77.242188 C 160.144531 75.320312 160.757812 73.335938 161.359375 71.367188 C 161.359375 71.355469 161.359375 71.34375 161.371094 71.335938 C 161.4375 71.097656 161.519531 70.867188 161.585938 70.625 C 161.695312 70.59375 161.8125 70.5625 161.921875 70.527344 C 162.132812 70.457031 162.339844 70.386719 162.554688 70.3125 C 164.371094 69.695312 166.117188 68.847656 167.640625 67.722656 C 170.476562 69.378906 173.007812 71.308594 175.554688 73.328125 C 172.554688 77.515625 168.988281 81.339844 164.925781 84.707031 C 163.921875 83.476562 162.761719 82.339844 161.65625 81.242188 Z M 151.859375 83.605469 C 153.824219 82.460938 155.75 81.238281 157.597656 79.925781 C 157.796875 79.785156 158 79.640625 158.199219 79.5 C 158.269531 79.5625 158.335938 79.628906 158.40625 79.699219 C 159.101562 80.363281 159.8125 81.015625 160.449219 81.699219 C 161.625 82.953125 162.6875 84.320312 163.816406 85.617188 C 162.695312 86.507812 161.539062 87.367188 160.367188 88.1875 C 160 88.449219 159.625 88.707031 159.246094 88.957031 C 158.1875 89.675781 157.109375 90.359375 156.019531 91.015625 C 155.285156 88.328125 153.664062 85.699219 151.859375 83.605469 Z M 140.664062 89.519531 C 140.65625 89.496094 140.648438 89.476562 140.644531 89.453125 C 141.664062 88.964844 142.675781 88.476562 143.667969 87.980469 C 146.136719 86.753906 148.605469 85.472656 151.027344 84.085938 C 152.027344 85.382812 152.902344 86.753906 153.621094 88.234375 C 154.160156 89.363281 154.511719 90.53125 154.851562 91.707031 C 151.335938 93.746094 147.671875 95.511719 143.894531 97.042969 L 143.777344 96.820312 C 142.585938 94.445312 141.65625 91.980469 140.664062 89.519531 Z M 131.96875 96.183594 C 131.667969 95.414062 131.441406 94.628906 131.230469 93.835938 L 131.230469 93.832031 C 131.183594 93.675781 131.136719 93.519531 131.097656 93.359375 C 131.105469 93.363281 131.105469 93.363281 131.117188 93.355469 C 134.003906 92.417969 136.839844 91.222656 139.597656 89.941406 C 140.261719 92.507812 141.222656 95.132812 142.421875 97.625 C 139.722656 98.667969 136.972656 99.59375 134.195312 100.414062 C 133.492188 98.996094 132.554688 97.6875 131.96875 96.183594 Z M 123.378906 92.875 C 123.644531 92.703125 123.90625 92.53125 124.164062 92.363281 C 124.296875 92.480469 124.4375 92.589844 124.582031 92.691406 C 125.277344 93.210938 126.105469 93.589844 126.980469 93.839844 C 127.457031 93.984375 127.964844 94.085938 128.453125 94.140625 C 128.679688 94.085938 128.90625 94.023438 129.128906 93.964844 C 129.351562 93.902344 129.574219 93.832031 129.789062 93.765625 C 129.816406 93.914062 129.847656 94.0625 129.878906 94.214844 C 130.320312 96.585938 131.355469 99.109375 132.703125 100.84375 C 131.316406 101.238281 129.917969 101.605469 128.519531 101.945312 C 125.253906 102.734375 121.972656 103.394531 118.675781 103.957031 C 118.023438 102.542969 117.394531 101.125 116.941406 99.625 C 116.785156 99.109375 116.652344 98.585938 116.535156 98.058594 C 116.515625 97.960938 116.492188 97.859375 116.464844 97.761719 C 116.710938 97.574219 116.941406 97.390625 117.183594 97.207031 C 117.425781 97.023438 117.664062 96.847656 117.910156 96.667969 C 118.871094 95.941406 119.84375 95.234375 120.824219 94.539062 C 121.640625 93.964844 122.515625 93.429688 123.378906 92.875 Z M 136.714844 51.234375 C 136.851562 51.359375 136.992188 51.484375 137.128906 51.609375 C 141.539062 55.527344 146.316406 59.109375 150.871094 62.8125 C 153.542969 64.988281 156.207031 67.171875 158.894531 69.335938 C 159.261719 69.628906 159.625 69.925781 159.992188 70.230469 C 160.132812 70.347656 160.269531 70.464844 160.417969 70.582031 C 160.363281 70.71875 160.300781 70.851562 160.253906 70.988281 C 159.359375 73.195312 158.476562 75.433594 157.761719 77.695312 C 157.6875 77.929688 157.613281 78.164062 157.542969 78.398438 C 157.445312 78.453125 157.359375 78.507812 157.273438 78.566406 C 155.132812 79.886719 152.996094 81.210938 150.832031 82.496094 C 150.589844 82.644531 150.34375 82.785156 150.09375 82.929688 C 148.183594 84.054688 146.253906 85.140625 144.277344 86.152344 C 142.894531 86.863281 141.488281 87.527344 140.082031 88.160156 C 139.808594 88.289062 139.527344 88.410156 139.257812 88.53125 C 136.445312 89.78125 133.605469 90.9375 130.769531 92.144531 C 130.402344 92.300781 130.035156 92.460938 129.660156 92.625 C 129.402344 92.738281 129.136719 92.855469 128.875 92.96875 C 128.242188 92.863281 127.628906 92.722656 127.023438 92.527344 C 126.351562 92.3125 125.738281 92 125.125 91.6875 C 124.894531 91.574219 124.667969 91.457031 124.445312 91.34375 C 124.40625 91.09375 124.367188 90.839844 124.320312 90.589844 C 124.03125 88.925781 123.574219 87.257812 123.292969 85.675781 C 122.777344 82.730469 122.296875 79.773438 121.859375 76.816406 C 121.207031 72.484375 120.855469 68.082031 120.28125 63.730469 C 120.25 63.535156 120.226562 63.332031 120.203125 63.136719 C 120.445312 62.984375 120.683594 62.828125 120.925781 62.671875 C 123.503906 60.976562 125.976562 59.085938 128.492188 57.308594 C 131.011719 55.527344 133.574219 53.765625 135.980469 51.824219 C 136.226562 51.632812 136.472656 51.433594 136.714844 51.234375 Z M 172.882812 49.402344 C 174.871094 48.601562 177.289062 48.734375 179.800781 48.960938 C 180.5 49.03125 181.152344 49.089844 181.699219 49.363281 C 182.152344 49.59375 182.570312 49.992188 182.984375 50.578125 C 183.648438 51.523438 184.078125 52.65625 184.226562 53.84375 C 184.269531 54.195312 184.285156 54.550781 184.285156 54.910156 C 184.285156 54.980469 184.292969 55.042969 184.3125 55.109375 C 183.597656 57.640625 182.71875 60.101562 181.6875 62.484375 C 180.417969 61.480469 179.003906 60.648438 177.554688 59.941406 C 175.457031 58.917969 172.773438 57.863281 170.285156 57.796875 C 170.4375 57.285156 170.59375 56.769531 170.75 56.261719 C 171.457031 54 172.257812 51.71875 172.882812 49.402344 Z M 232.285156 43.707031 C 231.101562 40.347656 229.707031 37.894531 227.902344 35.996094 C 225.28125 33.234375 220.765625 31.15625 216.585938 32.742188 C 215.503906 33.15625 214.539062 33.78125 213.597656 34.386719 C 212.304688 35.214844 211.082031 36.003906 209.691406 36.199219 C 209.289062 36.257812 208.878906 36.261719 208.433594 36.265625 C 207.800781 36.273438 207.128906 36.285156 206.460938 36.457031 C 204.429688 36.984375 203.261719 38.6875 202.136719 40.335938 C 201.570312 41.15625 200.996094 42.007812 200.320312 42.667969 C 199.375 43.601562 198.171875 44.222656 196.894531 44.882812 C 195.742188 45.488281 194.542969 46.109375 193.515625 46.996094 C 193.148438 47.320312 192.808594 47.671875 192.496094 48.039062 C 191.925781 48.695312 191.421875 49.402344 190.9375 50.09375 C 190.699219 50.433594 190.464844 50.765625 190.222656 51.082031 C 189.941406 51.472656 189.640625 51.851562 189.320312 52.210938 C 188.453125 53.175781 187.390625 53.859375 186.382812 54.140625 C 186.105469 54.21875 185.839844 54.265625 185.578125 54.28125 C 185.5625 54.082031 185.542969 53.882812 185.519531 53.683594 C 185.441406 53.082031 185.3125 52.496094 185.117188 51.929688 C 184.859375 51.179688 184.5 50.472656 184.058594 49.828125 C 183.519531 49.0625 182.9375 48.535156 182.292969 48.199219 C 181.527344 47.816406 180.679688 47.734375 179.90625 47.660156 C 177.566406 47.453125 175.296875 47.320312 173.265625 47.894531 C 172.820312 48.019531 172.382812 48.175781 171.960938 48.378906 C 171.886719 48.289062 171.804688 48.207031 171.722656 48.121094 C 167.296875 43.480469 161.5625 39.167969 153.757812 34.601562 C 144.003906 28.898438 135.675781 25.390625 127.550781 23.570312 C 123.726562 22.714844 119.8125 22.207031 115.839844 22.050781 C 113.265625 21.949219 110.671875 21.992188 108.066406 22.179688 C 107.695312 22.203125 107.339844 22.230469 106.972656 22.261719 C 104.144531 22.507812 101.296875 22.914062 98.457031 23.492188 C 92.601562 24.671875 86.757812 26.550781 81.027344 29.109375 C 80.535156 29.328125 80.039062 29.554688 79.554688 29.78125 C 78.03125 30.5 76.511719 31.261719 75.003906 32.074219 C 68.566406 35.542969 62.308594 39.90625 56.265625 45.117188 C 56.136719 45.222656 56.007812 45.332031 55.882812 45.449219 C 49.449219 51.046875 43.269531 57.617188 37.382812 65.121094 C 37.292969 65.234375 37.203125 65.347656 37.113281 65.464844 C 36.863281 65.429688 36.605469 65.421875 36.355469 65.433594 C 35.214844 65.496094 34.078125 66.007812 33.332031 66.859375 C 32.652344 67.644531 32.242188 68.664062 32.125 69.773438 C 32.027344 70.699219 32.132812 71.691406 32.453125 72.667969 C 32.757812 73.59375 33.222656 74.488281 33.90625 75.460938 C 32.113281 77.316406 29.34375 78.554688 26.371094 78.8125 C 22.625 79.128906 18.828125 78.09375 15.28125 76.925781 C 15.09375 76.863281 14.882812 76.890625 14.71875 76.996094 C 14.550781 77.101562 14.441406 77.28125 14.425781 77.480469 C 14.300781 78.742188 14.945312 80.019531 16.335938 81.28125 C 19.507812 84.160156 24.023438 85.753906 29.058594 85.761719 L 29.109375 85.761719 C 32.691406 85.761719 36.527344 85.007812 41.152344 83.390625 C 42.964844 85.101562 44.875 86.738281 46.871094 88.296875 C 47.203125 88.5625 47.542969 88.824219 47.886719 89.078125 C 50.171875 90.808594 52.570312 92.441406 55.0625 93.964844 C 55.292969 101.734375 57.941406 107.941406 62.535156 111.472656 C 63.492188 112.207031 64.542969 112.84375 65.558594 113.449219 C 66.746094 114.164062 67.894531 114.851562 68.878906 115.683594 C 69.0625 115.839844 69.242188 116 69.421875 116.171875 C 69.835938 116.574219 70.210938 117.015625 70.539062 117.503906 C 70.730469 117.796875 70.90625 118.113281 71.105469 118.449219 C 71.855469 119.730469 72.691406 121.183594 74.320312 121.476562 C 74.359375 121.484375 74.394531 121.484375 74.433594 121.484375 C 74.589844 121.484375 74.730469 121.429688 74.855469 121.335938 C 75.003906 121.214844 75.089844 121.03125 75.089844 120.839844 L 75.152344 115.117188 C 75.300781 115.191406 75.449219 115.273438 75.597656 115.363281 C 75.65625 115.398438 75.730469 115.414062 75.808594 115.414062 C 77.507812 116.378906 79.085938 117.53125 80.515625 118.84375 C 80.679688 118.992188 80.902344 119.046875 81.117188 118.996094 C 81.324219 118.949219 81.496094 118.792969 81.578125 118.585938 C 81.90625 117.691406 82.101562 116.753906 82.148438 115.804688 C 82.171875 115.472656 82.179688 115.144531 82.167969 114.8125 C 84.238281 116.035156 86.273438 117.371094 88.234375 118.796875 C 88.402344 118.917969 88.621094 118.953125 88.816406 118.886719 C 89.015625 118.828125 89.171875 118.667969 89.242188 118.472656 C 90.007812 116.1875 88.789062 113.972656 87.253906 112.035156 C 88.242188 111.941406 89.253906 112.085938 90.171875 112.457031 C 90.382812 112.542969 90.632812 112.507812 90.816406 112.367188 C 90.996094 112.226562 91.09375 112 91.066406 111.773438 C 90.859375 110.128906 89.386719 109.132812 88.199219 108.332031 L 87.96875 108.179688 C 87.628906 107.953125 87.300781 107.714844 86.992188 107.472656 C 86.03125 106.726562 85.160156 105.886719 84.375 104.960938 C 85.214844 105.066406 86.046875 105.171875 86.867188 105.265625 C 87.429688 105.335938 87.996094 105.402344 88.550781 105.464844 C 93.34375 106.023438 97.839844 106.464844 102.222656 106.746094 C 102.773438 106.785156 103.332031 106.816406 103.882812 106.84375 C 104.328125 106.871094 104.765625 106.894531 105.210938 106.910156 C 108.34375 107.066406 111.429688 107.132812 114.53125 107.085938 C 123.945312 106.945312 132.59375 105.746094 140.316406 103.515625 C 141.886719 103.066406 143.410156 102.574219 144.894531 102.039062 L 144.902344 102.039062 C 145.613281 102.847656 146.339844 103.617188 147.082031 104.34375 C 148.976562 106.210938 150.96875 107.816406 153.046875 109.148438 C 155.109375 110.476562 157.25 111.527344 159.464844 112.320312 C 160.015625 112.515625 160.582031 112.699219 161.144531 112.882812 C 162.886719 113.441406 164.53125 113.972656 165.9375 114.945312 C 166.523438 115.347656 167.058594 115.816406 167.628906 116.316406 C 168.808594 117.347656 170.027344 118.414062 171.632812 118.804688 C 171.683594 118.816406 171.734375 118.820312 171.78125 118.820312 C 171.957031 118.820312 172.117188 118.757812 172.246094 118.636719 C 172.40625 118.472656 172.476562 118.242188 172.421875 118.023438 C 172.109375 116.660156 171.707031 115.304688 171.226562 113.976562 C 173.238281 115.027344 175.359375 115.855469 177.546875 116.457031 C 177.777344 116.523438 178.03125 116.453125 178.199219 116.273438 C 178.359375 116.09375 178.417969 115.839844 178.328125 115.609375 C 177.644531 113.703125 176.707031 111.929688 175.527344 110.308594 C 177.496094 110.679688 179.476562 111.058594 181.441406 111.433594 C 181.675781 111.476562 181.914062 111.398438 182.066406 111.21875 C 182.214844 111.046875 182.261719 110.796875 182.183594 110.582031 C 181.449219 108.488281 180.011719 106.65625 178.179688 105.398438 C 179.054688 105.496094 179.925781 105.675781 180.757812 105.933594 C 180.996094 106.003906 181.25 105.9375 181.429688 105.753906 C 181.597656 105.570312 181.652344 105.304688 181.558594 105.074219 C 180.488281 102.289062 177.648438 100.238281 174.664062 100.09375 C 174.570312 100.089844 174.476562 100.085938 174.378906 100.085938 C 174.285156 100.082031 174.1875 100.082031 174.09375 100.078125 C 173.800781 100.074219 173.527344 100.070312 173.265625 100.035156 C 173.136719 100.023438 173.019531 100 172.910156 99.96875 C 172.554688 99.871094 172.207031 99.667969 171.832031 99.457031 C 171.738281 99.402344 171.644531 99.351562 171.546875 99.296875 C 170.367188 98.648438 169.058594 98.222656 167.730469 98.039062 C 167.570312 98.015625 167.410156 97.996094 167.253906 97.980469 C 167.230469 97.773438 167.207031 97.570312 167.175781 97.363281 C 167.164062 97.25 167.144531 97.132812 167.125 97.019531 C 167.019531 96.402344 166.875 95.792969 166.6875 95.199219 C 171.265625 95.074219 176.03125 93.507812 180.199219 90.738281 C 182.554688 89.175781 184.703125 87.289062 186.777344 85.460938 C 186.820312 85.417969 186.867188 85.378906 186.917969 85.335938 C 187.660156 84.683594 188.410156 84.03125 189.175781 83.382812 C 191.25 81.632812 193.425781 79.980469 195.824219 78.78125 C 197.558594 77.910156 199.449219 77.261719 201.273438 76.632812 C 203.738281 75.789062 206.28125 74.914062 208.542969 73.488281 C 211.40625 71.683594 213.625 69.152344 215.777344 66.703125 L 221.460938 60.21875 C 223.550781 57.839844 225.710938 55.378906 227.179688 52.457031 C 228.371094 50.078125 228.949219 47.550781 228.8125 45.269531 C 228.8125 45.175781 228.808594 45.085938 228.800781 44.992188 C 229.015625 44.925781 229.234375 44.863281 229.464844 44.8125 C 230.183594 44.648438 230.929688 44.566406 231.664062 44.578125 C 231.871094 44.597656 232.082031 44.480469 232.199219 44.308594 C 232.328125 44.132812 232.355469 43.910156 232.285156 43.707031 "/>
</g>
<path style=" stroke:none;fill-rule:nonzero;fill:rgb(100%,100%,100%);fill-opacity:1;" d="M 35.269531 75.121094 C 35.675781 75.664062 36.117188 76.179688 36.488281 76.621094 C 36.515625 76.652344 36.546875 76.6875 36.570312 76.714844 C 37.472656 75.644531 38.480469 74.664062 39.578125 73.816406 C 39.746094 73.6875 39.914062 73.5625 40.082031 73.445312 C 39.988281 73.292969 39.894531 73.140625 39.804688 72.988281 C 38.636719 71.035156 37.660156 68.863281 36.847656 66.753906 C 35.929688 66.65625 34.921875 67.035156 34.324219 67.71875 C 33.777344 68.347656 33.507812 69.113281 33.425781 69.886719 C 33.339844 70.71875 33.46875 71.5625 33.695312 72.257812 C 34 73.179688 34.5 74.089844 35.269531 75.121094 Z M 39.039062 81.320312 C 38.578125 80.851562 38.121094 80.378906 37.675781 79.894531 C 37.3125 79.507812 36.957031 79.121094 36.605469 78.730469 C 36.597656 78.722656 36.589844 78.710938 36.585938 78.703125 C 36.296875 78.390625 36.019531 78.074219 35.738281 77.75 C 35.65625 77.65625 35.578125 77.5625 35.496094 77.46875 C 35.25 77.179688 34.976562 76.859375 34.703125 76.515625 C 32.679688 78.535156 29.734375 79.828125 26.488281 80.109375 L 26.457031 80.109375 C 22.832031 80.421875 19.234375 79.550781 15.84375 78.476562 C 16.046875 79.058594 16.503906 79.675781 17.214844 80.316406 C 20.148438 82.980469 24.355469 84.449219 29.058594 84.457031 L 29.109375 84.457031 C 32.378906 84.457031 35.890625 83.792969 40.09375 82.378906 C 40.023438 82.308594 39.949219 82.238281 39.878906 82.164062 C 39.597656 81.886719 39.316406 81.605469 39.039062 81.320312 Z M 85.011719 107.503906 C 84.1875 106.746094 83.425781 105.914062 82.738281 105.011719 C 82.664062 104.917969 82.59375 104.828125 82.523438 104.730469 C 81.507812 104.605469 80.492188 104.480469 79.472656 104.34375 C 79.445312 104.339844 79.414062 104.335938 79.386719 104.328125 C 78.574219 104.109375 77.769531 103.878906 76.964844 103.636719 C 76.878906 103.726562 76.769531 103.792969 76.640625 103.816406 C 75.046875 104.0625 73.453125 104.148438 71.890625 104.578125 C 70.355469 105.011719 68.992188 105.785156 67.539062 106.398438 C 67.277344 106.507812 66.90625 106.226562 67.148438 105.976562 C 68.828125 104.238281 71.6875 103.050781 74.34375 102.820312 C 74.019531 102.714844 73.691406 102.605469 73.371094 102.496094 C 73.261719 102.457031 73.160156 102.421875 73.050781 102.382812 C 72.886719 102.328125 72.714844 102.269531 72.550781 102.210938 C 72.292969 102.121094 72.03125 102.027344 71.773438 101.929688 C 71.515625 101.839844 71.25 101.75 70.996094 101.648438 C 70.699219 101.542969 70.402344 101.429688 70.113281 101.316406 C 69.933594 101.253906 69.757812 101.183594 69.585938 101.113281 C 69.242188 100.988281 68.910156 100.851562 68.574219 100.71875 C 68.464844 100.675781 68.355469 100.632812 68.25 100.582031 C 68.003906 100.488281 67.765625 100.386719 67.527344 100.28125 C 67.328125 100.203125 67.128906 100.121094 66.921875 100.035156 C 66.488281 99.851562 66.050781 99.660156 65.617188 99.46875 C 65.195312 99.289062 64.78125 99.101562 64.378906 98.910156 C 64.140625 98.804688 63.902344 98.695312 63.671875 98.582031 C 63.34375 98.433594 63.027344 98.277344 62.703125 98.121094 C 62.535156 98.042969 62.363281 97.960938 62.199219 97.875 C 61.957031 97.761719 61.71875 97.640625 61.476562 97.515625 C 61.269531 97.414062 61.054688 97.308594 60.847656 97.199219 L 60.847656 97.195312 C 60.59375 97.070312 60.347656 96.9375 60.097656 96.808594 C 59.960938 96.738281 59.824219 96.667969 59.6875 96.59375 C 59.550781 96.527344 59.421875 96.457031 59.285156 96.382812 C 58.867188 96.15625 58.441406 95.925781 58.019531 95.6875 C 57.761719 95.546875 57.511719 95.402344 57.257812 95.253906 C 57.015625 95.121094 56.773438 94.980469 56.535156 94.839844 C 56.492188 94.816406 56.453125 94.792969 56.40625 94.769531 C 56.65625 99.277344 57.972656 106.320312 63.335938 110.441406 C 64.230469 111.128906 65.25 111.742188 66.230469 112.335938 C 67.398438 113.035156 68.589844 113.746094 69.640625 114.628906 C 70.609375 113.664062 72.042969 113.148438 73.382812 113.246094 C 73.976562 112.671875 74.730469 112.210938 75.550781 111.898438 C 77.453125 111.160156 79.738281 111.195312 81.25 112.390625 C 82.148438 111.121094 83.949219 110.464844 85.394531 110.855469 C 84.941406 109.816406 84.820312 108.597656 85.011719 107.503906 Z M 142.421875 97.625 C 141.222656 95.132812 140.257812 92.507812 139.597656 89.941406 C 136.835938 91.222656 134.003906 92.421875 131.113281 93.355469 C 131.105469 93.363281 131.105469 93.363281 131.097656 93.359375 C 131.136719 93.519531 131.183594 93.675781 131.226562 93.832031 L 131.226562 93.839844 C 131.441406 94.628906 131.667969 95.417969 131.96875 96.1875 C 132.554688 97.6875 133.488281 98.996094 134.195312 100.414062 C 136.972656 99.597656 139.722656 98.667969 142.421875 97.625 Z M 172.808594 101.289062 C 172.730469 101.269531 172.640625 101.253906 172.554688 101.226562 C 172.039062 101.082031 171.601562 100.832031 171.183594 100.59375 L 170.910156 100.441406 C 169.601562 99.722656 168.117188 99.308594 166.621094 99.25 C 166.539062 99.242188 166.460938 99.226562 166.390625 99.195312 C 164.902344 100.277344 163.035156 101.113281 161.347656 101.199219 C 161.054688 101.214844 160.785156 100.894531 161.113281 100.699219 C 161.914062 100.203125 162.824219 99.894531 163.65625 99.457031 C 164.449219 99.042969 165.199219 98.554688 165.945312 98.074219 C 165.917969 97.792969 165.882812 97.511719 165.835938 97.234375 C 165.6875 96.402344 165.460938 95.582031 165.15625 94.785156 C 165.121094 94.707031 165.113281 94.632812 165.113281 94.550781 L 165.113281 94.546875 C 164.402344 93.277344 163.605469 92.058594 162.535156 91.058594 C 162.023438 90.578125 161.476562 90.1875 160.910156 89.851562 C 159.429688 90.867188 157.914062 91.832031 156.371094 92.738281 L 156.371094 92.742188 C 156.027344 92.941406 155.683594 93.136719 155.347656 93.328125 C 151.917969 95.285156 148.339844 96.996094 144.644531 98.476562 C 145.257812 99.625 145.894531 100.757812 146.527344 101.898438 C 148.789062 104.359375 151.203125 106.414062 153.742188 108.050781 C 155.722656 109.320312 157.78125 110.339844 159.902344 111.089844 C 160.445312 111.28125 160.992188 111.460938 161.546875 111.636719 C 162.535156 111.957031 163.539062 112.28125 164.515625 112.699219 C 164.902344 111.1875 167.609375 111.160156 169.570312 111.777344 C 169.628906 110.921875 170.070312 110.109375 170.828125 109.589844 C 171.394531 109.207031 172.109375 109.007812 172.796875 109.054688 C 172.148438 107.570312 172.898438 105.667969 174.210938 104.710938 C 173.058594 104.03125 172.601562 102.597656 172.808594 101.289062 Z M 223.542969 36.339844 C 223.035156 35.898438 222.320312 35.792969 221.660156 35.6875 C 221.082031 35.597656 220.441406 35.453125 219.871094 35.625 C 219.726562 35.671875 219.636719 35.820312 219.738281 35.949219 C 220.0625 36.355469 220.734375 36.515625 221.214844 36.667969 C 221.867188 36.886719 222.539062 37.085938 223.222656 36.976562 C 223.488281 36.929688 223.828125 36.589844 223.542969 36.339844 Z M 215.730469 41.96875 C 211.695312 40.085938 206.597656 44.050781 207.183594 48.382812 C 207.265625 48.992188 208.265625 48.777344 208.363281 48.28125 C 208.722656 46.574219 209.292969 44.964844 210.738281 43.875 C 212.085938 42.867188 213.730469 42.703125 215.355469 42.691406 C 215.695312 42.691406 216.226562 42.203125 215.730469 41.96875 Z M 214.300781 47.128906 C 213.664062 47.5 213.175781 48.0625 212.664062 48.578125 C 212.476562 48.769531 212.542969 49.078125 212.777344 49.199219 C 213.03125 49.339844 213.347656 49.257812 213.542969 49.0625 C 214.042969 48.574219 214.585938 48.117188 214.914062 47.5 C 215.121094 47.117188 214.554688 46.988281 214.300781 47.128906 Z M 230.742188 43.300781 C 229.753906 43.371094 228.773438 43.589844 227.863281 43.9375 C 227.851562 43.941406 227.839844 43.949219 227.832031 43.949219 C 224.617188 44.003906 222.230469 46.535156 220.847656 49.410156 C 219.832031 51.539062 219.230469 53.847656 217.894531 55.828125 C 215.941406 58.707031 212.800781 59.242188 209.671875 58.101562 C 209.414062 58.007812 209.066406 58.300781 209.34375 58.519531 C 212.195312 60.757812 216.199219 59.933594 218.539062 57.335938 C 221.453125 54.101562 222.203125 45.332031 227.492188 45.1875 C 227.652344 47.285156 227.125 49.640625 226.007812 51.875 C 224.617188 54.644531 222.511719 57.042969 220.476562 59.359375 L 214.792969 65.84375 C 212.710938 68.222656 210.554688 70.679688 207.847656 72.382812 C 205.710938 73.726562 203.234375 74.582031 200.847656 75.402344 C 198.980469 76.042969 197.050781 76.707031 195.234375 77.617188 C 191.792969 79.335938 188.871094 81.886719 186.042969 84.371094 C 183.582031 85.105469 181.042969 85.171875 178.390625 85.367188 C 175.921875 85.546875 173.398438 85.871094 171.375 87.398438 C 171.253906 87.496094 171.425781 87.632812 171.535156 87.59375 C 175.109375 86.402344 178.539062 86.523438 182.230469 86.265625 C 182.855469 86.222656 183.480469 86.160156 184.09375 86.070312 C 182.617188 87.335938 181.082031 88.578125 179.480469 89.648438 C 175.4375 92.335938 170.808594 93.832031 166.398438 93.898438 C 165.6875 91.914062 164.09375 90.070312 162.175781 88.96875 C 163.121094 88.289062 164.046875 87.589844 164.957031 86.863281 C 165.292969 86.601562 165.609375 86.335938 165.9375 86.070312 C 170.039062 82.691406 173.75 78.835938 176.960938 74.453125 C 177.207031 74.117188 177.449219 73.777344 177.691406 73.433594 C 177.734375 73.363281 177.785156 73.296875 177.832031 73.226562 C 179.613281 70.667969 181.179688 67.964844 182.5 65.167969 C 182.726562 64.707031 182.9375 64.25 183.136719 63.785156 C 184.3125 61.125 185.277344 58.371094 186.027344 55.546875 C 187.566406 55.339844 189 54.40625 190 53.394531 C 189.949219 56.292969 190.765625 59.242188 192.183594 61.804688 C 192.398438 62.191406 193.21875 61.9375 192.992188 61.5 C 191.289062 58.21875 191.027344 54.777344 191.621094 51.378906 C 191.757812 51.199219 191.878906 51.019531 192.007812 50.84375 C 192.75 49.785156 193.453125 48.78125 194.378906 47.980469 C 195.28125 47.195312 196.359375 46.636719 197.5 46.042969 C 198.800781 45.367188 200.144531 44.667969 201.242188 43.59375 C 202 42.847656 202.621094 41.945312 203.210938 41.070312 C 204.25 39.554688 205.230469 38.125 206.785156 37.71875 C 207.304688 37.589844 207.859375 37.582031 208.457031 37.570312 C 208.910156 37.566406 209.382812 37.558594 209.871094 37.492188 C 211.550781 37.257812 212.953125 36.359375 214.304688 35.484375 C 215.230469 34.886719 216.101562 34.328125 217.050781 33.960938 C 219.660156 32.972656 223.730469 33.496094 226.949219 36.890625 C 228.472656 38.496094 229.683594 40.550781 230.742188 43.300781 Z M 49.519531 81.359375 C 49.367188 80.980469 49.226562 80.601562 49.085938 80.21875 C 48.945312 79.84375 48.808594 79.46875 48.664062 79.109375 C 48.230469 78.042969 47.484375 76.773438 47.277344 75.546875 C 47.25 75.429688 47.238281 75.3125 47.226562 75.195312 C 46.890625 75.222656 46.550781 75.246094 46.195312 75.253906 C 44.992188 75.285156 43.707031 75.171875 42.492188 74.894531 C 42.011719 74.789062 41.546875 74.660156 41.097656 74.503906 C 41.027344 74.550781 40.960938 74.605469 40.894531 74.660156 C 39.675781 75.621094 38.53125 76.621094 37.464844 77.734375 C 37.851562 78.160156 38.234375 78.582031 38.621094 79 C 38.988281 79.390625 39.355469 79.773438 39.722656 80.15625 C 39.949219 80.386719 40.171875 80.613281 40.398438 80.839844 L 41.769531 82.175781 C 43.585938 83.90625 45.507812 85.566406 47.519531 87.144531 C 48.339844 85.738281 49.308594 84.394531 50.414062 83.195312 C 50.054688 82.628906 49.769531 82.003906 49.519531 81.359375 Z M 62.953125 89.1875 C 62.773438 89.101562 62.597656 89.007812 62.425781 88.914062 C 60.078125 87.671875 57.746094 86.386719 55.460938 85.035156 C 55.289062 84.9375 55.117188 84.835938 54.949219 84.734375 C 54.15625 84.261719 53.304688 83.792969 52.460938 83.300781 C 51.027344 84.753906 49.710938 86.257812 48.582031 87.96875 C 50.957031 89.777344 53.449219 91.464844 56.046875 93.035156 C 57.292969 93.785156 58.558594 94.503906 59.839844 95.195312 C 60.238281 92.902344 61.320312 90.777344 62.953125 89.1875 Z M 64.300781 89.894531 C 62.707031 91.359375 61.601562 93.171875 61.109375 95.367188 C 61.078125 95.515625 61.050781 95.664062 61.023438 95.8125 C 63.296875 97 65.632812 98.085938 68.027344 99.082031 C 69.460938 99.679688 70.917969 100.238281 72.390625 100.765625 C 72.328125 98.859375 72.855469 96.847656 73.800781 95.125 C 73.890625 94.957031 73.976562 94.792969 74.085938 94.632812 C 73.789062 94.515625 73.492188 94.386719 73.207031 94.253906 C 72.007812 93.703125 70.835938 93.082031 69.71875 92.558594 C 67.898438 91.707031 66.09375 90.816406 64.300781 89.894531 Z M 86.421875 98.253906 C 86.007812 98 85.609375 97.699219 85.230469 97.382812 C 85.050781 97.230469 84.875 97.074219 84.699219 96.917969 C 84.539062 96.773438 84.378906 96.628906 84.21875 96.488281 C 83.882812 96.171875 83.144531 95.585938 82.65625 94.96875 C 82.632812 94.941406 82.617188 94.917969 82.597656 94.890625 C 82.238281 94.96875 81.863281 95.039062 81.488281 95.09375 C 80.355469 95.265625 79.167969 95.335938 77.988281 95.339844 C 77.4375 95.34375 76.890625 95.328125 76.34375 95.300781 C 76.1875 95.300781 76.039062 95.289062 75.890625 95.28125 C 75.695312 95.273438 75.503906 95.261719 75.304688 95.246094 C 74.929688 95.894531 74.589844 96.566406 74.335938 97.277344 C 73.890625 98.484375 73.707031 99.679688 73.558594 100.910156 C 73.550781 100.996094 73.53125 101.082031 73.523438 101.171875 C 75.546875 101.863281 77.605469 102.492188 79.6875 103.058594 C 80.78125 103.203125 81.878906 103.339844 82.972656 103.476562 C 84.140625 103.625 85.292969 103.765625 86.429688 103.902344 C 86.019531 102.117188 86.085938 100.125 86.421875 98.253906 Z M 101.902344 98.859375 C 97.476562 98.835938 92.914062 98.65625 88.488281 97.976562 C 88.273438 97.953125 88.066406 97.917969 87.847656 97.878906 C 87.796875 98.207031 87.753906 98.539062 87.730469 98.875 C 87.691406 99.398438 87.675781 99.925781 87.683594 100.457031 C 87.707031 101.738281 88.007812 102.921875 88.28125 104.125 C 93.070312 104.683594 97.574219 105.132812 101.941406 105.417969 C 101.59375 103.300781 101.617188 100.945312 101.902344 98.859375 Z M 115.238281 98.726562 C 115.199219 98.582031 115.175781 98.4375 115.148438 98.300781 C 114.859375 98.34375 114.5625 98.386719 114.273438 98.421875 C 110.652344 98.890625 106.847656 98.890625 103.296875 98.871094 L 103.28125 98.871094 C 103.25 100.0625 103.222656 101.253906 103.300781 102.449219 C 103.367188 103.480469 103.539062 104.507812 103.699219 105.53125 C 104.222656 105.5625 104.753906 105.589844 105.273438 105.613281 C 105.804688 105.636719 106.328125 105.664062 106.847656 105.679688 C 109.617188 105.332031 112.382812 104.960938 115.140625 104.535156 C 115.84375 104.425781 116.554688 104.316406 117.257812 104.195312 C 116.34375 102.53125 115.625 100.632812 115.238281 98.726562 Z M 129.789062 93.769531 C 129.574219 93.832031 129.351562 93.902344 129.128906 93.964844 C 128.90625 94.023438 128.679688 94.085938 128.453125 94.140625 C 127.964844 94.085938 127.457031 93.984375 126.980469 93.84375 C 126.109375 93.589844 125.28125 93.210938 124.582031 92.695312 C 124.4375 92.589844 124.300781 92.480469 124.164062 92.363281 C 123.90625 92.535156 123.644531 92.703125 123.378906 92.875 C 122.515625 93.429688 121.640625 93.964844 120.824219 94.539062 C 119.84375 95.234375 118.871094 95.941406 117.910156 96.667969 C 117.664062 96.847656 117.425781 97.027344 117.183594 97.207031 C 116.941406 97.390625 116.710938 97.574219 116.464844 97.761719 C 116.492188 97.859375 116.515625 97.960938 116.535156 98.0625 C 116.652344 98.585938 116.785156 99.109375 116.941406 99.625 C 117.394531 101.125 118.023438 102.542969 118.675781 103.957031 C 121.972656 103.398438 125.253906 102.734375 128.519531 101.945312 C 129.917969 101.605469 131.316406 101.238281 132.703125 100.84375 C 131.355469 99.109375 130.324219 96.585938 129.878906 94.214844 C 129.847656 94.0625 129.816406 93.917969 129.789062 93.769531 Z M 143.894531 97.042969 C 147.671875 95.511719 151.335938 93.746094 154.855469 91.707031 C 154.515625 90.53125 154.160156 89.363281 153.621094 88.238281 C 152.902344 86.753906 152.027344 85.382812 151.027344 84.085938 C 148.609375 85.476562 146.136719 86.753906 143.667969 87.980469 C 142.675781 88.476562 141.664062 88.96875 140.644531 89.453125 C 140.648438 89.476562 140.65625 89.496094 140.664062 89.519531 C 141.65625 91.980469 142.589844 94.445312 143.777344 96.820312 Z M 159.246094 88.957031 C 159.625 88.707031 160 88.449219 160.367188 88.1875 C 161.539062 87.367188 162.695312 86.511719 163.816406 85.617188 C 162.6875 84.324219 161.628906 82.953125 160.449219 81.699219 C 159.8125 81.015625 159.101562 80.363281 158.40625 79.699219 C 158.335938 79.628906 158.269531 79.566406 158.199219 79.5 C 158 79.644531 157.796875 79.785156 157.601562 79.925781 C 155.75 81.238281 153.824219 82.460938 151.859375 83.605469 C 153.664062 85.699219 155.285156 88.328125 156.023438 91.015625 C 157.113281 90.359375 158.1875 89.675781 159.246094 88.957031 Z M 175.554688 73.328125 C 173.007812 71.308594 170.476562 69.378906 167.640625 67.722656 C 166.117188 68.847656 164.375 69.695312 162.554688 70.3125 C 162.34375 70.386719 162.132812 70.457031 161.921875 70.527344 C 161.816406 70.5625 161.695312 70.59375 161.589844 70.628906 C 161.519531 70.867188 161.441406 71.097656 161.371094 71.335938 C 161.359375 71.34375 161.359375 71.359375 161.359375 71.367188 C 160.757812 73.335938 160.144531 75.320312 159.429688 77.242188 C 159.25 77.699219 159.082031 78.152344 158.894531 78.597656 C 158.972656 78.667969 159.058594 78.738281 159.136719 78.8125 C 160.023438 79.59375 160.863281 80.449219 161.65625 81.242188 C 162.761719 82.339844 163.925781 83.480469 164.925781 84.710938 C 168.988281 81.339844 172.554688 77.515625 175.554688 73.328125 Z M 181.015625 63.96875 C 179.566406 62.8125 178.089844 61.726562 176.40625 60.875 C 174.359375 59.832031 172.148438 59.394531 170.027344 58.65625 C 169.246094 61.3125 168.464844 64.027344 167.386719 66.558594 C 167.386719 66.578125 167.375 66.597656 167.363281 66.617188 C 167.535156 66.695312 167.710938 66.773438 167.886719 66.855469 C 168.066406 66.941406 168.234375 67.019531 168.414062 67.105469 C 171.222656 68.445312 174.027344 70.0625 176.457031 72.03125 C 178.183594 69.46875 179.714844 66.777344 181.015625 63.96875 Z M 170.285156 57.796875 C 172.773438 57.863281 175.457031 58.917969 177.554688 59.941406 C 179.003906 60.652344 180.417969 61.480469 181.6875 62.488281 C 182.71875 60.101562 183.597656 57.640625 184.3125 55.109375 C 184.292969 55.042969 184.285156 54.980469 184.285156 54.910156 C 184.285156 54.554688 184.269531 54.195312 184.226562 53.84375 C 184.078125 52.65625 183.648438 51.527344 182.984375 50.578125 C 182.570312 49.992188 182.152344 49.597656 181.699219 49.367188 C 181.15625 49.09375 180.5 49.03125 179.804688 48.960938 C 177.289062 48.734375 174.875 48.605469 172.882812 49.40625 C 172.257812 51.71875 171.457031 54 170.75 56.261719 C 170.59375 56.773438 170.4375 57.285156 170.285156 57.796875 Z M 41.328125 72.636719 C 41.464844 72.875 41.597656 73.113281 41.730469 73.355469 C 41.960938 73.402344 42.191406 73.449219 42.421875 73.492188 C 42.753906 73.554688 43.089844 73.609375 43.425781 73.65625 C 44.703125 73.816406 45.976562 73.789062 47.25 73.835938 C 47.300781 73.761719 47.355469 73.695312 47.414062 73.621094 C 49.488281 70.828125 51.632812 68.085938 53.855469 65.402344 C 55.507812 63.394531 57.203125 61.429688 58.929688 59.484375 C 58.980469 59.433594 59.027344 59.375 59.078125 59.320312 C 59.394531 58.964844 59.703125 58.597656 60.03125 58.230469 C 60.074219 58.179688 60.121094 58.128906 60.167969 58.078125 C 59.59375 56.332031 59.179688 54.515625 58.574219 52.789062 C 57.921875 50.894531 56.820312 48.898438 56.21875 46.894531 C 49.890625 52.460938 43.808594 58.984375 38.023438 66.425781 C 38.546875 67.507812 39.074219 68.59375 39.644531 69.65625 C 40.167969 70.652344 40.765625 71.636719 41.328125 72.636719 Z M 61.351562 56.792969 C 61.4375 57.097656 61.515625 57.40625 61.578125 57.710938 C 62.011719 57.566406 62.445312 57.425781 62.878906 57.285156 C 65.28125 56.484375 67.703125 55.703125 70.125 54.949219 C 72.582031 54.183594 75.078125 53.320312 77.589844 52.613281 C 77.890625 52.527344 78.203125 52.445312 78.507812 52.363281 C 78.546875 52.355469 78.578125 52.34375 78.617188 52.335938 C 78.257812 45.382812 78.21875 38.195312 79.292969 31.355469 C 78.058594 31.945312 76.839844 32.570312 75.628906 33.222656 C 69.253906 36.65625 63.054688 40.980469 57.070312 46.148438 C 58.117188 47.730469 58.777344 49.746094 59.433594 51.429688 C 60.089844 53.140625 60.847656 54.957031 61.351562 56.792969 Z M 78.683594 53.640625 C 76.09375 54.523438 73.410156 55.21875 70.816406 55.996094 C 67.804688 56.898438 64.777344 57.746094 61.75 58.585938 L 61.746094 58.585938 C 61.421875 58.945312 61.082031 59.296875 60.753906 59.644531 C 60.316406 60.097656 59.890625 60.550781 59.484375 61.003906 C 57.835938 62.851562 56.214844 64.722656 54.609375 66.609375 C 52.5625 69.019531 50.546875 71.457031 48.570312 73.929688 C 48.476562 74.046875 48.378906 74.160156 48.289062 74.277344 C 48.199219 74.390625 48.101562 74.507812 48.015625 74.625 C 48.140625 74.746094 48.253906 74.878906 48.363281 75.019531 C 49.003906 75.863281 49.339844 76.980469 49.777344 77.945312 C 50.261719 79.011719 50.902344 80.144531 51.367188 81.300781 C 51.582031 81.414062 51.792969 81.535156 52.003906 81.652344 C 52.449219 81.910156 52.890625 82.167969 53.328125 82.433594 C 54.238281 82.984375 55.140625 83.539062 56.050781 84.035156 C 58.425781 85.34375 60.824219 86.636719 63.238281 87.871094 C 63.507812 88.007812 63.777344 88.144531 64.046875 88.277344 C 64.511719 88.515625 64.972656 88.746094 65.429688 88.972656 C 67.253906 89.878906 69.089844 90.757812 70.941406 91.621094 C 72.195312 92.203125 73.652344 92.710938 75.019531 93.335938 C 75.402344 93.511719 75.777344 93.699219 76.140625 93.898438 C 76.226562 93.941406 76.3125 93.988281 76.398438 94.042969 C 77.109375 94 77.824219 93.949219 78.53125 93.894531 C 79.636719 93.808594 80.765625 93.628906 81.882812 93.542969 C 81.917969 93.425781 81.949219 93.3125 81.980469 93.195312 C 83.242188 88.46875 84.6875 83.792969 86.226562 79.148438 C 87.902344 74.082031 89.535156 68.800781 91.632812 63.8125 C 91.730469 63.589844 91.824219 63.367188 91.917969 63.148438 C 91.980469 63.015625 92.035156 62.886719 92.097656 62.75 C 90.027344 61.371094 88.105469 59.71875 86.09375 58.28125 C 84.132812 56.878906 82.089844 55.601562 80.082031 54.28125 C 79.90625 54.171875 79.730469 54.058594 79.558594 53.941406 C 79.355469 53.808594 79.160156 53.679688 78.964844 53.542969 C 78.871094 53.578125 78.773438 53.609375 78.683594 53.640625 Z M 92.621094 61.585938 C 92.804688 61.757812 92.980469 61.929688 93.15625 62.105469 C 93.515625 61.851562 93.890625 61.617188 94.246094 61.371094 C 94.332031 61.3125 94.417969 61.253906 94.496094 61.195312 C 95.964844 60.152344 97.414062 59.085938 98.839844 57.992188 C 101.15625 56.210938 103.382812 54.328125 105.609375 52.433594 C 105.6875 52.367188 105.78125 52.296875 105.859375 52.222656 C 105.859375 52.035156 105.859375 51.847656 105.867188 51.65625 C 105.894531 47.15625 106.046875 42.648438 106.171875 38.148438 C 106.300781 33.328125 106.246094 28.390625 106.808594 23.582031 C 104.113281 23.828125 101.417969 24.21875 98.714844 24.761719 C 92.769531 25.96875 86.820312 27.902344 81 30.554688 C 80.875 34.582031 80.429688 38.617188 80.277344 42.644531 C 80.160156 45.753906 80.089844 48.871094 80.082031 51.980469 C 80.070312 52.367188 80.070312 52.757812 80.070312 53.144531 L 80.070312 53.148438 C 82.171875 54.253906 84.191406 55.53125 86.160156 56.84375 C 88.3125 58.285156 90.671875 59.777344 92.621094 61.585938 Z M 110.800781 97.34375 C 112.179688 97.238281 113.5625 97.054688 114.949219 96.902344 C 115.320312 96.859375 115.695312 96.824219 116.0625 96.789062 C 116.117188 96.742188 116.171875 96.695312 116.230469 96.648438 C 116.328125 96.570312 116.414062 96.488281 116.515625 96.414062 C 117.703125 95.398438 118.921875 94.421875 120.179688 93.488281 C 121.070312 92.832031 121.984375 92.105469 122.953125 91.445312 C 122.476562 89.496094 122.300781 87.375 121.972656 85.515625 C 121.480469 82.703125 121.027344 79.890625 120.617188 77.074219 C 119.992188 72.753906 119.269531 68.328125 118.929688 63.925781 C 118.894531 63.558594 118.875 63.179688 118.851562 62.8125 C 118.847656 62.800781 118.847656 62.785156 118.847656 62.773438 C 116.925781 61.410156 115.121094 59.828125 113.277344 58.398438 C 111.15625 56.75 108.957031 55.179688 106.867188 53.484375 C 106.761719 53.402344 106.652344 53.316406 106.546875 53.222656 C 106.320312 53.445312 106.09375 53.664062 105.859375 53.875 C 103.964844 55.644531 101.960938 57.289062 99.875 58.84375 C 98.191406 60.101562 96.121094 61.925781 93.988281 63.007812 C 93.878906 63.070312 93.761719 63.125 93.640625 63.179688 C 93.601562 63.3125 93.554688 63.445312 93.503906 63.578125 C 91.710938 68.757812 89.535156 73.851562 87.769531 79.03125 C 86.132812 83.828125 84.617188 88.664062 83.113281 93.5 C 83.09375 93.566406 83.070312 93.636719 83.054688 93.707031 C 83.425781 93.859375 83.785156 94.140625 84.132812 94.460938 C 84.570312 94.859375 84.972656 95.304688 85.332031 95.59375 C 85.777344 95.953125 86.28125 96.277344 86.785156 96.613281 C 86.933594 96.710938 87.074219 96.8125 87.222656 96.917969 L 87.996094 96.96875 C 92.679688 97.300781 97.339844 97.695312 102.050781 97.667969 L 102.109375 97.667969 C 102.507812 97.664062 102.902344 97.664062 103.304688 97.65625 C 105.804688 97.625 108.304688 97.527344 110.800781 97.34375 Z M 113.742188 57.019531 C 115.378906 58.21875 117.128906 59.410156 118.753906 60.734375 C 119.183594 61.078125 119.605469 61.433594 120.011719 61.804688 C 120.023438 61.8125 120.03125 61.824219 120.050781 61.835938 C 122.429688 59.949219 124.964844 58.226562 127.402344 56.4375 C 130.179688 54.402344 132.941406 52.3125 135.855469 50.484375 C 135.851562 50.472656 135.851562 50.457031 135.851562 50.449219 C 135.820312 50.03125 135.792969 49.617188 135.777344 49.199219 C 135.632812 46.265625 135.742188 43.28125 135.710938 40.398438 C 135.664062 36.195312 135.632812 32.003906 135.871094 27.808594 C 135.871094 27.671875 135.886719 27.535156 135.894531 27.398438 C 132.953125 26.320312 130.097656 25.476562 127.261719 24.839844 C 123.527344 24 119.691406 23.507812 115.796875 23.347656 C 113.261719 23.25 110.710938 23.292969 108.132812 23.476562 C 108.351562 28.332031 107.925781 33.269531 107.695312 38.105469 C 107.492188 42.480469 107.324219 46.863281 107.027344 51.234375 C 107.007812 51.585938 106.980469 51.945312 106.957031 52.296875 L 106.957031 52.304688 C 107.066406 52.367188 107.175781 52.429688 107.273438 52.5 C 109.511719 53.890625 111.632812 55.472656 113.742188 57.019531 Z M 120.925781 62.671875 C 120.6875 62.832031 120.445312 62.988281 120.203125 63.140625 C 120.230469 63.335938 120.25 63.535156 120.28125 63.730469 C 120.855469 68.082031 121.210938 72.484375 121.859375 76.816406 C 122.300781 79.773438 122.777344 82.730469 123.292969 85.675781 C 123.574219 87.257812 124.035156 88.929688 124.320312 90.589844 C 124.371094 90.839844 124.410156 91.09375 124.449219 91.347656 C 124.671875 91.460938 124.898438 91.578125 125.128906 91.691406 C 125.738281 92.003906 126.351562 92.3125 127.023438 92.527344 C 127.628906 92.726562 128.246094 92.863281 128.875 92.96875 C 129.136719 92.855469 129.402344 92.738281 129.660156 92.625 C 130.035156 92.464844 130.402344 92.304688 130.773438 92.144531 C 133.605469 90.9375 136.449219 89.78125 139.257812 88.53125 C 139.527344 88.410156 139.808594 88.289062 140.082031 88.164062 C 141.492188 87.527344 142.894531 86.863281 144.28125 86.152344 C 146.253906 85.140625 148.1875 84.058594 150.09375 82.929688 C 150.34375 82.789062 150.589844 82.644531 150.832031 82.496094 C 152.996094 81.210938 155.132812 79.886719 157.273438 78.570312 C 157.359375 78.507812 157.449219 78.457031 157.542969 78.398438 C 157.613281 78.164062 157.6875 77.929688 157.761719 77.695312 C 158.476562 75.433594 159.363281 73.199219 160.253906 70.988281 C 160.304688 70.855469 160.363281 70.71875 160.421875 70.585938 C 160.273438 70.464844 160.132812 70.347656 159.992188 70.230469 C 159.628906 69.925781 159.261719 69.632812 158.894531 69.335938 C 156.210938 67.175781 153.542969 64.992188 150.871094 62.8125 C 146.316406 59.113281 141.539062 55.527344 137.132812 51.609375 C 136.992188 51.484375 136.851562 51.363281 136.71875 51.234375 C 136.472656 51.4375 136.230469 51.632812 135.980469 51.828125 C 133.574219 53.765625 131.011719 55.527344 128.492188 57.308594 C 125.976562 59.085938 123.507812 60.976562 120.925781 62.671875 Z M 137.359375 40.316406 C 137.335938 43.382812 137.46875 46.558594 137.289062 49.667969 C 137.28125 49.859375 137.265625 50.054688 137.25 50.238281 C 137.367188 50.316406 137.480469 50.402344 137.59375 50.488281 C 142.425781 53.984375 147.007812 57.929688 151.652344 61.632812 C 154.457031 63.875 157.277344 66.109375 160.070312 68.367188 C 160.382812 68.613281 160.695312 68.863281 161.003906 69.109375 C 161.214844 69.273438 161.425781 69.441406 161.636719 69.597656 C 161.742188 69.554688 161.847656 69.511719 161.945312 69.460938 C 163.433594 68.8125 164.835938 68.058594 166.253906 67.230469 C 166.265625 67.144531 166.273438 67.050781 166.296875 66.964844 C 166.335938 66.710938 166.382812 66.457031 166.429688 66.199219 C 166.957031 63.46875 167.859375 60.742188 168.695312 58.066406 C 168.6875 58.03125 168.703125 57.984375 168.734375 57.945312 C 168.890625 57.429688 169.046875 56.910156 169.199219 56.398438 C 169.871094 54.128906 170.484375 51.789062 171.234375 49.511719 C 166.835938 44.773438 161.066406 40.386719 153.101562 35.730469 C 147.371094 32.378906 142.144531 29.800781 137.171875 27.878906 C 137.40625 32.015625 137.398438 36.167969 137.359375 40.316406 Z M 143.152344 99.066406 C 143.476562 99.691406 143.816406 100.308594 144.183594 100.910156 C 142.816406 101.398438 141.402344 101.847656 139.960938 102.265625 C 133.710938 104.066406 126.835938 105.183594 119.417969 105.605469 C 119.003906 105.632812 118.589844 105.65625 118.167969 105.671875 C 117.230469 105.714844 116.289062 105.746094 115.339844 105.761719 C 116.21875 105.660156 117.113281 105.542969 117.992188 105.417969 C 118.417969 105.359375 118.832031 105.296875 119.261719 105.234375 C 127.363281 104.015625 135.476562 102.011719 143.152344 99.066406 "/>
</g>
</svg>
